<?xml version="1.0" encoding="UTF-8" standalone="no"?>
<svg width="33px" height="37px" viewBox="0 0 33 37" version="1.1" xmlns="http://www.w3.org/2000/svg" xmlns:xlink="http://www.w3.org/1999/xlink">
    <!-- Generator: Sketch 3.8.2 (29753) - http://www.bohemiancoding.com/sketch -->
    <title>algolia mark</title>
    <desc>Created with Sketch.</desc>
    <defs></defs>
    <g id="-Page-1" stroke="none" stroke-width="1" fill="none" fill-rule="evenodd">
        <g id="cabin" transform="translate(-905.000000, -3346.000000)" fill="#46AEDA">
            <g id="Group-7" transform="translate(335.000000, 1811.000000)">
                <g id="1" transform="translate(400.000000, 1535.000000)">
                    <g id="algolia-mark" transform="translate(170.000000, 0.000000)">
                        <path d="M17.2184382,22.0742417 L25.1340918,17.7248577 C23.9844987,15.6115977 22.0228698,14.0136838 19.6762357,13.3427101 L17.2184382,22.0742417 Z" id="Fill-1"></path>
                        <path d="M5.80288646,7.45084864 C4.74412204,6.38466255 3.02651061,6.38534513 1.96774618,7.45084864 L1.4885231,7.93343094 C0.429758677,8.99893445 0.430436504,10.7285859 1.4885231,11.794772 L1.99892618,12.3080703 C3.08548148,10.5524809 4.46892463,9.00302991 6.07672822,7.72729253 L5.80288646,7.45084864 L5.80288646,7.45084864 Z" id="Fill-2"></path>
                        <path d="M22.3682794,4.77855765 C22.3723464,4.71985599 22.3852251,4.66388463 22.3852251,4.60381781 L22.3852251,3.23866277 C22.3845473,1.73153161 21.1712385,0.509035278 19.6739205,0.5083527 L14.9284597,0.5083527 C13.4318196,0.509035278 12.217833,1.73084904 12.217833,3.23866277 L12.217833,4.5799276 C13.7287075,4.15399922 15.3182098,3.92124029 16.962616,3.92124029 C18.8476505,3.92124029 20.6635467,4.22430471 22.3682794,4.77855765" id="Fill-3"></path>
                        <path d="M17.1549586,10.9781192 C23.103711,10.9781192 27.9438997,15.8306367 27.9438997,21.7945415 C27.9438997,27.7584463 23.103711,32.6109637 17.1549586,32.6109637 C11.2062061,32.6109637 6.36601743,27.7584463 6.36601743,21.7945415 C6.36601743,15.8306367 11.2062061,10.9781192 17.1549586,10.9781192 L17.1549586,10.9781192 Z M2.05044097,21.7945415 C2.05044097,30.1569141 8.8117723,36.9375325 17.1549586,36.9375325 C25.4981448,36.9375325 32.2594762,30.1569141 32.2594762,21.7945415 C32.2594762,13.4321688 25.4981448,6.65155036 17.1549586,6.65155036 C8.8117723,6.65155036 2.05044097,13.4321688 2.05044097,21.7945415 L2.05044097,21.7945415 Z" id="Fill-4"></path>
                    </g>
                </g>
            </g>
        </g>
    </g>
</svg>