<?xml version="1.0" encoding="UTF-8" standalone="no"?>
<svg width="54px" height="30px" viewBox="0 0 54 30" version="1.1" xmlns="http://www.w3.org/2000/svg" xmlns:xlink="http://www.w3.org/1999/xlink">
    <!-- Generator: Sketch 3.8.2 (29753) - http://www.bohemiancoding.com/sketch -->
    <title>Group 6</title>
    <desc>Created with Sketch.</desc>
    <defs></defs>
    <g id="-Page-1" stroke="none" stroke-width="1" fill="none" fill-rule="evenodd">
        <g id="cabin" transform="translate(-894.000000, -4245.000000)" fill="#0088CF">
            <g id="Group-7" transform="translate(335.000000, 1811.000000)">
                <g id="1" transform="translate(400.000000, 2434.000000)">
                    <g id="Group-6" transform="translate(159.000000, 0.000000)">
                        <g id="Page-1">
                            <path d="M3.34217146,28.4407491 C12.9778967,22.2309139 23.9009665,26.6982216 29.3416665,29.6873407 C21.8052977,26.7011813 10.7562959,26.0006557 3.34217146,28.4407491 L3.34217146,28.4407491 Z" id="Fill-1"></path>
                            <path d="M5.69615737,24.8299066 C4.13039812,25.9895568 3.2481374,26.9675549 3.2481374,26.9675549 C3.2481374,27.0097308 4.15823958,26.4558956 5.69615737,25.805315 L5.69615737,24.8299066 Z M5.69615737,20.9784029 C4.68095831,19.0063132 5.03091251,16.7684048 5.03091251,16.7684048 C5.03091251,16.7684048 3.31230182,20.7220183 5.69615737,23.0764652 L5.69615737,20.9784029 Z M5.69615737,10.4751429 L5.69615737,14.0663773 C4.1088256,14.9818516 3.04181562,16.685533 3.04181562,18.6361648 C3.04181562,20.5867967 4.10900998,22.290478 5.69615737,23.2061374 L5.69615737,23.8470989 C5.05635702,24.2810659 4.43278215,24.7435201 3.91633235,25.1408608 C1.63148914,23.6783956 0.118647093,21.1332326 0.118647093,18.2378993 C0.118647093,14.6431502 2.44976982,11.5883626 5.69615737,10.4751429 L5.69615737,10.4751429 Z M5.69615737,14.0663773 L5.69615737,10.4751429 C6.43220435,10.2228278 7.21526835,10.069848 8.02893952,10.0335916 C7.98708514,10.443696 7.96532824,10.8600897 7.96532824,11.281293 C7.96532824,11.989033 8.02691133,12.6825293 8.14399295,13.3571575 C7.25417264,13.3947088 6.42095713,13.6483187 5.69615737,14.0663773 L5.69615737,14.0663773 Z M5.69615737,23.8470989 C6.25612096,23.4671465 6.82843805,23.109207 7.35170992,22.835989 C7.09615854,22.6728352 6.85683265,22.4865586 6.64110746,22.2736447 C6.2387892,21.876859 5.93087375,21.4347527 5.69615737,20.9784029 L5.69615737,23.0764652 C5.71643922,23.0966282 5.7365367,23.1169762 5.7573717,23.1367692 C5.85841221,23.2324048 5.96369348,23.321011 6.0722936,23.4038828 C5.94396477,23.3428388 5.81840164,23.2768004 5.69615737,23.2061374 L5.69615737,23.8470989 Z M5.69615737,25.805315 L5.69615737,24.8299066 C8.70782854,22.5993974 14.2497534,19.6970348 20.9128961,21.7917674 C31.0396265,24.9754872 37.484094,29.3064634 45.3095713,27.3573114 C53.1348644,25.4081593 53.825185,21.1199139 53.825185,21.1199139 C53.825185,21.1199139 52.444175,27.1762143 44.7341198,28.5054927 C37.0236958,29.8347711 29.9215432,28.3447436 20.8878203,24.9658681 C14.7907258,22.6855989 8.88907457,24.4542088 5.69615737,25.805315 L5.69615737,25.805315 Z M20.2581609,0 C24.8885085,0 28.8735244,2.73828388 30.6529806,6.66932967 L27.0308256,6.66932967 C25.4320622,4.69058059 22.9735326,3.42271612 20.2161221,3.42271612 C17.5042537,3.42271612 15.0814938,4.64821978 13.4814398,6.57091941 C13.5669924,6.50229121 13.6543887,6.43421795 13.7462102,6.36854945 C17.5319107,3.65764286 22.5800646,6.64565201 22.5800646,6.64565201 C22.5800646,6.64565201 17.783037,5.25440476 14.5392308,7.5355989 C11.2957933,9.81697802 11.8172214,14.3845458 11.8172214,14.3845458 C11.8172214,14.3845458 11.7958332,14.3240568 11.7631979,14.2139927 C11.7766577,14.2665275 11.7906706,14.3188773 11.805421,14.3710421 C11.0273353,13.796859 10.0847821,13.4209762 9.05778274,13.3225659 C8.93572284,12.6603315 8.87137405,11.978304 8.87137405,11.281293 C8.87137405,5.05055495 13.969495,0 20.2581609,0 L20.2581609,0 Z" id="Fill-2"></path>
                            <path d="M31.1642678,23.2853095 C31.1642678,23.2853095 35.9974339,25.7675788 40.5431509,25.3633938 C45.0886835,24.9593938 46.4696935,23.3430238 46.4696935,23.3430238 C46.4696935,23.3430238 44.8008655,26.431478 40.4279131,26.6046209 C36.0549607,26.7777637 31.1642678,23.4009231 31.1642678,23.2853095 L31.1642678,23.2853095 Z" id="Fill-3"></path>
                            <polygon id="Fill-4" points="27.4585884 11.6775238 31.5215972 11.6775238 31.5215972 7.60182234 27.4585884 7.60182234"></polygon>
                            <polygon id="Fill-5" points="43.5931732 22.0463022 46.7353858 22.0463022 46.7353858 18.8942143 43.5931732 18.8942143"></polygon>
                            <polygon id="Fill-6" points="32.3544439 9.30180403 37.7720963 9.30180403 37.7720963 3.86704212 32.3544439 3.86704212"></polygon>
                            <polygon id="Fill-7" points="48.0828385 18.7068278 53.5004909 18.7068278 53.5004909 13.2722509 48.0828385 13.2722509"></polygon>
                            <polygon id="Fill-8" points="38.2914962 12.7493077 41.3120176 12.7493077 41.3120176 9.71930769 38.2914962 9.71930769"></polygon>
                            <polygon id="Fill-9" points="40.311569 18.7171868 43.3320904 18.7171868 43.3320904 15.6873718 40.311569 15.6873718"></polygon>
                            <polygon id="Fill-10" points="33.9537604 19.0196319 36.9740975 19.0196319 36.9740975 15.9898168 33.9537604 15.9898168"></polygon>
                            <polygon id="Fill-11" points="44.5414422 12.8538223 47.5617792 12.8538223 47.5617792 9.82400733 44.5414422 9.82400733"></polygon>
                        </g>
                    </g>
                </g>
            </g>
        </g>
    </g>
</svg>