<?xml version="1.0" encoding="UTF-8" standalone="no"?>
<svg width="16px" height="16px" viewBox="0 0 16 16" version="1.1" xmlns="http://www.w3.org/2000/svg" xmlns:xlink="http://www.w3.org/1999/xlink">
    <!-- Generator: Sketch 3.8.2 (29753) - http://www.bohemiancoding.com/sketch -->
    <title>github</title>
    <desc>Created with Sketch.</desc>
    <defs></defs>
    <g id="-Page-1" stroke="none" stroke-width="1" fill="none" fill-rule="evenodd">
        <g id="cabin" transform="translate(-1238.000000, -7173.000000)" fill="#FFFFFF">
            <g id="Group-15" transform="translate(134.000000, 6521.000000)">
                <g id="Group-5" transform="translate(1078.000000, 652.000000)">
                    <path d="M34,0 C29.582,0 26,3.58 26,8 C26,11.53 28.292,14.53 31.471,15.59 C31.871,15.66 32.018,15.42 32.018,15.2 C32.018,15.01 32.01,14.38 32.007,13.71 C29.781,14.2 29.312,12.77 29.312,12.77 C28.948,11.85 28.424,11.6 28.424,11.6 C27.698,11.1 28.479,11.11 28.479,11.11 C29.282,11.17 29.705,11.94 29.705,11.94 C30.419,13.16 31.577,12.81 32.033,12.6 C32.105,12.09 32.312,11.73 32.541,11.53 C30.764,11.33 28.896,10.65 28.896,7.58 C28.896,6.71 29.209,5.99 29.72,5.43 C29.637,5.23 29.363,4.42 29.797,3.31 C29.797,3.31 30.469,3.1 31.998,4.14 C32.636,3.96 33.32,3.87 34,3.87 C34.68,3.87 35.365,3.96 36.004,4.14 C37.531,3.1 38.202,3.31 38.202,3.31 C38.637,4.42 38.364,5.23 38.281,5.43 C38.794,5.99 39.104,6.71 39.104,7.58 C39.104,10.65 37.232,11.33 35.451,11.53 C35.738,11.77 35.994,12.26 35.994,13.01 C35.994,14.08 35.985,14.94 35.985,15.2 C35.985,15.42 36.129,15.66 36.535,15.59 C39.712,14.53 42.001,11.53 42.001,8 C42.001,3.58 38.419,0 34.001,0 L34,0 L34,0 Z" id="github"></path>
                </g>
            </g>
        </g>
    </g>
</svg>