<?xml version="1.0" encoding="UTF-8" standalone="no"?>
<svg width="15px" height="16px" viewBox="0 0 15 16" version="1.1" xmlns="http://www.w3.org/2000/svg" xmlns:xlink="http://www.w3.org/1999/xlink">
    <!-- Generator: Sketch 3.8.2 (29753) - http://www.bohemiancoding.com/sketch -->
    <title>gplus</title>
    <desc>Created with Sketch.</desc>
    <defs></defs>
    <g id="-Page-1" stroke="none" stroke-width="1" fill="none" fill-rule="evenodd">
        <g id="cabin" transform="translate(-1269.000000, -7174.000000)" fill="#FFFFFF">
            <g id="Group-15" transform="translate(134.000000, 6521.000000)">
                <g id="Group-5" transform="translate(1078.000000, 652.000000)">
                    <polygon id="gplus" points="71.994 9.06 71.991 9.15 71.986 9.24 71.981 9.33 71.974 9.42 71.966 9.51 71.956 9.6 71.946 9.69 71.934 9.78 71.921 9.87 71.907 9.96 71.892 10.05 71.876 10.14 71.858 10.23 71.84 10.31 71.82 10.4 71.799 10.49 71.777 10.57 71.754 10.66 71.73 10.74 71.705 10.83 71.679 10.91 71.651 11 71.623 11.08 71.593 11.17 71.563 11.25 71.532 11.33 71.5 11.41 71.466 11.5 71.431 11.58 71.396 11.66 71.36 11.74 71.322 11.82 71.284 11.9 71.245 11.98 71.205 12.05 71.164 12.13 71.121 12.21 71.079 12.29 71.035 12.36 70.99 12.44 70.944 12.52 70.898 12.59 70.851 12.66 70.802 12.74 70.754 12.81 70.704 12.88 70.653 12.96 70.601 13.03 70.548 13.1 70.495 13.17 70.441 13.24 70.386 13.31 70.331 13.38 70.274 13.44 70.216 13.51 70.158 13.58 70.099 13.64 70.04 13.71 69.98 13.77 69.918 13.84 69.857 13.9 69.793 13.96 69.731 14.02 69.666 14.09 69.601 14.15 69.535 14.21 69.468 14.27 69.403 14.32 69.335 14.38 69.266 14.44 69.195 14.5 69.125 14.55 69.057 14.6 68.984 14.66 68.912 14.71 68.84 14.76 68.766 14.81 68.692 14.87 68.619 14.91 68.545 14.96 68.467 15.01 68.39 15.06 68.314 15.11 68.236 15.15 68.157 15.2 68.077 15.24 67.999 15.28 67.919 15.33 67.835 15.37 67.756 15.41 67.674 15.45 67.592 15.48 67.509 15.52 67.425 15.56 67.342 15.59 67.255 15.63 67.17 15.66 67.085 15.69 66.997 15.73 66.911 15.76 66.825 15.79 66.736 15.81 66.646 15.84 66.559 15.87 66.469 15.89 66.378 15.92 66.29 15.94 66.199 15.96 66.107 15.98 66.015 16 65.923 16.02 65.831 16.04 65.738 16.06 65.645 16.07 65.552 16.08 65.458 16.1 65.362 16.11 65.268 16.12 65.174 16.13 65.077 16.14 64.982 16.14 64.887 16.15 64.79 16.16 64.692 16.16 64.594 16.16 64.499 16.16 64.403 16.16 64.302 16.16 64.204 16.16 64.107 16.15 64.009 16.14 63.915 16.14 63.817 16.13 63.723 16.12 63.626 16.11 63.53 16.1 63.436 16.08 63.34 16.07 63.247 16.05 63.155 16.03 63.059 16.01 62.967 15.99 62.875 15.97 62.784 15.95 62.692 15.93 62.599 15.9 62.508 15.88 62.418 15.85 62.328 15.82 62.241 15.79 62.152 15.76 62.064 15.73 61.975 15.7 61.888 15.67 61.803 15.63 61.716 15.6 61.632 15.56 61.546 15.52 61.46 15.48 61.378 15.44 61.295 15.4 61.214 15.36 61.13 15.32 61.049 15.27 60.969 15.23 60.887 15.18 60.808 15.14 60.731 15.09 60.653 15.04 60.573 14.99 60.496 14.94 60.422 14.89 60.346 14.84 60.271 14.79 60.196 14.73 60.124 14.68 60.053 14.62 59.978 14.57 59.907 14.51 59.838 14.45 59.767 14.39 59.696 14.33 59.628 14.27 59.561 14.21 59.494 14.15 59.429 14.09 59.362 14.02 59.297 13.96 59.233 13.89 59.17 13.83 59.109 13.76 59.047 13.7 58.984 13.63 58.924 13.56 58.866 13.49 58.807 13.42 58.749 13.35 58.692 13.28 58.636 13.21 58.581 13.13 58.527 13.06 58.473 12.99 58.419 12.91 58.367 12.83 58.316 12.76 58.267 12.68 58.218 12.61 58.168 12.53 58.12 12.45 58.074 12.37 58.028 12.29 57.983 12.21 57.939 12.13 57.896 12.05 57.854 11.97 57.813 11.89 57.772 11.8 57.732 11.72 57.694 11.64 57.657 11.55 57.62 11.47 57.584 11.38 57.55 11.3 57.516 11.21 57.483 11.12 57.452 11.04 57.421 10.95 57.391 10.86 57.362 10.77 57.335 10.68 57.308 10.59 57.283 10.5 57.258 10.41 57.235 10.32 57.212 10.23 57.191 10.14 57.171 10.05 57.152 9.96 57.134 9.87 57.117 9.77 57.101 9.68 57.086 9.59 57.073 9.49 57.06 9.4 57.049 9.3 57.039 9.21 57.03 9.11 57.022 9.02 57.016 8.92 57.01 8.83 57.006 8.73 57.003 8.64 57.001 8.54 57 8.44 57.001 8.35 57.003 8.25 57.006 8.15 57.01 8.06 57.016 7.96 57.022 7.87 57.03 7.77 57.039 7.68 57.049 7.58 57.061 7.49 57.073 7.4 57.087 7.3 57.102 7.21 57.118 7.12 57.135 7.03 57.153 6.93 57.173 6.84 57.193 6.75 57.215 6.66 57.238 6.57 57.261 6.48 57.286 6.39 57.312 6.3 57.339 6.22 57.367 6.13 57.397 6.04 57.427 5.95 57.458 5.87 57.49 5.78 57.524 5.7 57.558 5.61 57.593 5.53 57.63 5.44 57.667 5.36 57.705 5.28 57.744 5.2 57.784 5.12 57.826 5.04 57.868 4.95 57.911 4.87 57.955 4.8 58 4.72 58.047 4.64 58.092 4.56 58.14 4.49 58.189 4.41 58.238 4.33 58.288 4.26 58.34 4.19 58.393 4.11 58.445 4.04 58.498 3.97 58.553 3.9 58.609 3.83 58.666 3.76 58.722 3.69 58.78 3.62 58.84 3.55 58.898 3.49 58.959 3.42 59.02 3.35 59.082 3.29 59.145 3.23 59.208 3.16 59.272 3.1 59.337 3.04 59.403 2.98 59.469 2.92 59.536 2.86 59.603 2.8 59.673 2.74 59.742 2.68 59.811 2.63 59.883 2.57 59.953 2.52 60.025 2.47 60.098 2.41 60.171 2.36 60.245 2.31 60.321 2.26 60.395 2.21 60.472 2.16 60.547 2.12 60.624 2.07 60.703 2.02 60.779 1.98 60.858 1.93 60.938 1.89 61.019 1.85 61.099 1.81 61.181 1.77 61.262 1.73 61.345 1.69 61.427 1.65 61.51 1.62 61.594 1.58 61.678 1.55 61.765 1.51 61.85 1.48 61.935 1.45 62.023 1.42 62.109 1.39 62.195 1.36 62.284 1.33 62.371 1.31 62.462 1.28 62.552 1.26 62.637 1.24 62.728 1.21 62.819 1.19 62.911 1.17 63.003 1.15 63.092 1.14 63.185 1.12 63.278 1.1 63.371 1.09 63.464 1.08 63.554 1.06 63.648 1.05 63.745 1.04 63.839 1.03 63.933 1.03 64.028 1.02 64.122 1.01 64.217 1.01 64.312 1.01 64.407 1 64.507 1 64.584 1 64.665 1.01 64.82 1.01 64.975 1.02 65.128 1.04 65.281 1.05 65.432 1.07 65.582 1.1 65.73 1.12 65.878 1.16 66.022 1.19 66.167 1.22 66.309 1.26 66.448 1.31 66.589 1.35 66.727 1.4 66.862 1.45 66.996 1.5 67.128 1.55 67.258 1.61 67.388 1.66 67.514 1.72 67.64 1.78 67.765 1.85 67.886 1.91 68.006 1.98 68.126 2.04 68.243 2.11 68.357 2.18 68.471 2.26 68.584 2.33 68.693 2.4 68.792 2.47 67.095 4.94 67.01 4.89 66.933 4.83 66.858 4.78 66.781 4.74 66.702 4.69 66.623 4.64 66.545 4.6 66.465 4.55 66.384 4.51 66.305 4.47 66.224 4.43 66.141 4.39 66.06 4.36 65.979 4.32 65.896 4.29 65.814 4.26 65.732 4.23 65.65 4.2 65.569 4.17 65.486 4.15 65.403 4.13 65.322 4.11 65.238 4.09 65.157 4.07 65.076 4.06 64.993 4.04 64.912 4.03 64.831 4.02 64.748 4.01 64.667 4.01 64.585 4.01 64.546 4 64.504 4 64.449 4 64.389 4.01 64.33 4.01 64.271 4.01 64.212 4.01 64.154 4.02 64.096 4.02 64.039 4.03 63.985 4.03 63.928 4.04 63.869 4.05 63.812 4.06 63.757 4.06 63.701 4.07 63.646 4.08 63.589 4.1 63.535 4.11 63.481 4.12 63.427 4.13 63.374 4.14 63.316 4.16 63.263 4.17 63.211 4.19 63.157 4.2 63.106 4.22 63.052 4.24 62.999 4.26 62.949 4.27 62.896 4.29 62.844 4.31 62.796 4.33 62.744 4.35 62.694 4.37 62.643 4.39 62.593 4.42 62.544 4.44 62.495 4.46 62.446 4.49 62.398 4.51 62.35 4.54 62.303 4.56 62.256 4.59 62.207 4.62 62.161 4.64 62.116 4.67 62.068 4.7 62.024 4.73 61.977 4.76 61.934 4.79 61.89 4.82 61.845 4.85 61.803 4.88 61.759 4.91 61.715 4.95 61.674 4.98 61.632 5.01 61.59 5.05 61.55 5.08 61.509 5.12 61.469 5.15 61.429 5.19 61.39 5.23 61.351 5.26 61.312 5.3 61.275 5.34 61.237 5.38 61.2 5.41 61.164 5.45 61.128 5.49 61.092 5.53 61.057 5.57 61.023 5.61 60.988 5.66 60.955 5.7 60.922 5.74 60.89 5.78 60.858 5.82 60.826 5.87 60.795 5.91 60.765 5.95 60.735 6 60.705 6.04 60.677 6.09 60.648 6.13 60.62 6.18 60.593 6.23 60.567 6.27 60.54 6.32 60.515 6.37 60.49 6.41 60.466 6.46 60.442 6.51 60.419 6.56 60.396 6.61 60.374 6.66 60.353 6.71 60.331 6.76 60.311 6.81 60.292 6.86 60.272 6.91 60.254 6.96 60.236 7.01 60.219 7.06 60.202 7.11 60.186 7.16 60.171 7.22 60.156 7.27 60.142 7.32 60.128 7.38 60.115 7.43 60.103 7.49 60.092 7.54 60.081 7.59 60.071 7.65 60.061 7.7 60.052 7.76 60.044 7.81 60.037 7.87 60.03 7.93 60.024 7.98 60.018 8.04 60.014 8.1 60.01 8.15 60.006 8.21 60.004 8.27 60.002 8.33 60.001 8.38 60.001 8.44 60.001 8.5 60.002 8.56 60.004 8.62 60.006 8.68 60.01 8.74 60.014 8.79 60.018 8.85 60.024 8.91 60.03 8.97 60.037 9.02 60.045 9.08 60.053 9.14 60.062 9.2 60.071 9.25 60.082 9.31 60.093 9.37 60.104 9.42 60.117 9.48 60.13 9.53 60.144 9.59 60.158 9.64 60.173 9.7 60.189 9.76 60.205 9.81 60.222 9.87 60.24 9.92 60.258 9.97 60.277 10.03 60.297 10.08 60.317 10.14 60.338 10.19 60.359 10.24 60.381 10.29 60.404 10.35 60.427 10.4 60.451 10.45 60.475 10.5 60.5 10.55 60.526 10.6 60.552 10.66 60.579 10.71 60.607 10.76 60.634 10.81 60.663 10.85 60.693 10.91 60.722 10.95 60.751 11 60.782 11.05 60.815 11.1 60.847 11.14 60.878 11.19 60.911 11.24 60.943 11.28 60.978 11.33 61.013 11.37 61.047 11.42 61.083 11.46 61.119 11.51 61.155 11.55 61.192 11.59 61.229 11.64 61.266 11.68 61.304 11.72 61.344 11.76 61.383 11.8 61.422 11.84 61.462 11.88 61.502 11.92 61.543 11.96 61.584 12 61.626 12.03 61.669 12.07 61.71 12.11 61.752 12.14 61.796 12.18 61.841 12.21 61.882 12.25 61.927 12.28 61.973 12.31 62.018 12.35 62.063 12.38 62.108 12.41 62.156 12.44 62.202 12.47 62.246 12.5 62.293 12.53 62.343 12.56 62.391 12.59 62.437 12.61 62.485 12.64 62.534 12.67 62.581 12.69 62.631 12.72 62.682 12.74 62.732 12.77 62.781 12.79 62.83 12.81 62.881 12.83 62.931 12.85 62.984 12.87 63.034 12.89 63.085 12.91 63.136 12.93 63.187 12.95 63.242 12.97 63.294 12.98 63.347 13 63.399 13.01 63.45 13.03 63.503 13.04 63.557 13.05 63.612 13.06 63.666 13.08 63.718 13.09 63.774 13.1 63.829 13.11 63.882 13.12 63.939 13.12 63.993 13.13 64.047 13.14 64.104 13.14 64.159 13.15 64.217 13.15 64.273 13.16 64.329 13.16 64.385 13.16 64.439 13.16 64.499 13.16 64.558 13.16 64.615 13.16 64.671 13.16 64.727 13.16 64.786 13.15 64.844 13.15 64.899 13.14 64.956 13.14 65.013 13.13 65.067 13.12 65.123 13.12 65.179 13.11 65.235 13.1 65.29 13.09 65.345 13.08 65.4 13.07 65.454 13.06 65.508 13.04 65.562 13.03 65.618 13.02 65.67 13 65.723 12.99 65.778 12.97 65.829 12.96 65.881 12.94 65.934 12.92 65.987 12.9 66.038 12.88 66.09 12.86 66.142 12.84 66.191 12.82 66.242 12.8 66.293 12.78 66.343 12.76 66.393 12.73 66.443 12.71 66.495 12.68 66.541 12.66 66.589 12.64 66.639 12.61 66.687 12.58 66.734 12.56 66.78 12.53 66.829 12.5 66.874 12.47 66.919 12.44 66.966 12.41 67.013 12.38 67.059 12.35 67.102 12.32 67.147 12.29 67.192 12.25 67.234 12.22 67.279 12.19 67.322 12.15 67.363 12.12 67.405 12.08 67.446 12.05 67.489 12.01 67.529 11.98 67.569 11.94 67.608 11.9 67.647 11.87 67.687 11.83 67.725 11.79 67.764 11.75 67.8 11.71 67.838 11.67 67.875 11.63 67.91 11.59 67.946 11.55 67.98 11.51 68.015 11.47 68.049 11.43 68.083 11.39 68.116 11.34 68.148 11.3 68.18 11.26 68.211 11.21 68.241 11.17 68.271 11.13 68.302 11.08 68.33 11.04 68.359 10.99 68.387 10.95 68.414 10.9 68.44 10.86 68.467 10.81 68.493 10.77 68.517 10.72 68.541 10.68 68.566 10.63 68.589 10.58 68.611 10.53 68.633 10.49 68.655 10.44 68.675 10.39 68.681 10.38 64.496 10.38 64.496 7.38 72.007 7.38 71.996 8.97"></polygon>
                </g>
            </g>
        </g>
    </g>
</svg>