<?xml version="1.0" encoding="UTF-8" standalone="no"?>
<svg width="193px" height="72px" viewBox="0 0 193 72" version="1.1" xmlns="http://www.w3.org/2000/svg" xmlns:xlink="http://www.w3.org/1999/xlink">
    <!-- Generator: Sketch 3.8.2 (29753) - http://www.bohemiancoding.com/sketch -->
    <title>Group 2</title>
    <desc>Created with Sketch.</desc>
    <defs>
        <path d="M65.3277184,22.9644791 C64.5045507,22.6823585 63.6515806,22.4154268 62.7733277,22.1629809 C62.9176791,21.5763781 63.0501652,20.9973698 63.1679625,20.4282062 C65.1015876,11.0823628 63.8373161,3.55328625 59.5202053,1.07439385 C55.3806378,-1.30253569 48.610691,1.17579415 41.7733708,7.10060854 C41.1158818,7.67033469 40.4565564,8.27353278 39.7975141,8.90570235 C39.3583875,8.48744375 38.9199675,8.08324902 38.4826776,7.69663406 C31.3169659,1.36143681 24.1344462,-1.30830187 19.8215729,1.17776309 C15.6859603,3.56158392 14.461237,10.6396332 16.2017819,19.4967582 C16.3698618,20.3522615 16.5663316,21.2259073 16.7885078,22.1141794 C15.7719776,22.4015036 14.7906171,22.707814 13.8516296,23.0336732 C5.45060155,25.9500916 0.085322156,30.5208395 0.085322156,35.2619004 C0.085322156,40.1585078 5.84495369,45.0698819 14.5952772,48.0478996 C15.2858172,48.2829066 16.0023459,48.5051152 16.7407675,48.7160727 C16.5010771,49.6767739 16.2926016,50.6182071 16.1176007,51.5364353 C14.4579884,60.2398426 15.7540397,67.1506726 19.8786353,69.5194452 C24.138966,71.9657096 31.2889995,69.4512355 38.2513202,63.3914083 C38.8016055,62.9123938 39.3538679,62.4044082 39.9071189,61.8719513 C40.624213,62.5595323 41.3401763,63.2102661 42.0523269,63.8206367 C48.7961439,69.5990466 55.4567683,71.9323784 59.5775502,69.5569959 C63.8336435,67.1036992 65.2168424,59.6798203 63.4210709,50.6474601 C63.2839232,49.9576286 63.1243181,49.2528896 62.9450801,48.5356339 C63.447201,48.3878225 63.9401414,48.23523 64.4207933,48.07659 C73.5175875,45.0755075 79.436259,40.2239044 79.436259,35.2619004 C79.436259,30.5036817 73.8979561,25.902134 65.3277184,22.9644791 Z M63.3546867,44.8727068 C62.9207863,45.0157357 62.4755864,45.1539836 62.021912,45.2880119 C61.0176702,42.1223823 59.6622965,38.7562022 58.0036729,35.2783553 C59.5864487,31.8833442 60.8894207,28.5601997 61.8655553,25.4151032 C62.6772823,25.6489848 63.4651391,25.8956646 64.2243237,26.1559863 C71.5672956,28.6729917 76.0464128,32.3944241 76.0464128,35.2619004 C76.0464128,38.3162853 71.2091022,42.2813035 63.3546867,44.8727068 Z M60.0956318,51.3029753 C60.8897031,55.2969653 61.0031216,58.9079968 60.4771304,61.7308907 C60.0045296,64.267445 59.0541013,65.9586216 57.8789545,66.6359361 C55.3782365,68.0771985 50.0304718,66.2037544 44.2630717,61.2620024 C43.6019104,60.6955108 42.9359467,60.0906251 42.2678644,59.4504389 C44.5037508,57.0155665 46.7383659,54.1849378 48.9193083,51.0412473 C52.7553429,50.7023091 56.3795129,50.1481935 59.6661099,49.3916997 C59.8279752,50.0418708 59.9717612,50.6795255 60.0956318,51.3029753 Z M27.1378501,66.3868657 C24.6946183,67.2460256 22.7487053,67.2706374 21.5724285,66.5952915 C19.0694507,65.1578266 18.0289091,59.6090793 19.448266,52.1659327 C19.6108374,51.3135232 19.8043412,50.437909 20.0273648,49.5428861 C23.277945,50.2585948 26.8755607,50.7736124 30.7207764,51.0840015 C32.9164083,54.1601855 35.2155716,56.9877202 37.5325316,59.4635184 C37.0263146,59.9501271 36.5220747,60.4133903 36.0206601,60.8499318 C32.9419734,63.5295153 29.8567895,65.430665 27.1378501,66.3868657 Z M15.69161,44.8540017 C11.8223829,43.5372045 8.6270289,41.8257758 6.43676436,39.9582388 C4.46867608,38.2800007 3.47502732,36.6138576 3.47502732,35.2619004 C3.47502732,32.3848609 7.7828159,28.7151832 14.9674541,26.2209612 C15.8392096,25.9183074 16.7517845,25.6330927 17.6988228,25.3651766 C18.6917653,28.5812954 19.9943138,31.9438188 21.5662139,35.3440333 C19.9739747,38.7947368 18.6529234,42.210844 17.650235,45.4646535 C16.9750906,45.2714164 16.3209915,45.0680535 15.69161,44.8540017 Z M19.5284924,18.8485558 C18.0372425,11.2599892 19.0276426,5.53544383 21.5198859,4.09896324 C24.1745594,2.56867683 30.0447845,4.75054089 36.2318195,10.2206714 C36.6273013,10.5702984 37.0243371,10.9362395 37.422503,11.3148381 C35.1169837,13.7798073 32.8388658,16.5861059 30.6627257,19.6441472 C26.930787,19.9885706 23.3584539,20.5418421 20.0739752,21.2827251 C19.8674771,20.4556307 19.6845666,19.6430221 19.5284924,18.8485558 Z M53.7569013,27.2642168 C52.9717286,25.9138069 52.1656509,24.5953219 51.3438959,23.3128404 C53.8756876,23.631527 56.3014046,24.0545673 58.5793817,24.5722573 C57.8954799,26.7546839 57.0430752,29.0365419 56.0396805,31.3757803 C55.3199034,30.0151039 54.5586002,28.6431763 53.7569013,27.2642168 Z M39.7986439,13.7270679 C41.3622106,15.4137442 42.9280372,17.2968923 44.4681575,19.3400869 C42.9161726,19.2670956 41.3449787,19.2291233 39.7607908,19.2291233 C38.1915743,19.2291233 36.6319625,19.2662518 35.0895823,19.3379774 C36.6312563,17.3137689 38.2106422,15.4331523 39.7986439,13.7270679 Z M25.7509792,27.2875628 C24.9666535,28.6417699 24.2194749,30.0062437 23.510997,31.373249 C22.5238454,29.0421675 21.67935,26.7499022 20.9895162,24.5365351 C23.2535099,24.0320652 25.6677868,23.6195728 28.1834765,23.3069336 C27.3501393,24.6012288 26.5374236,25.9294178 25.7509792,27.2872815 L25.7509792,27.2875628 Z M28.2559345,47.4576404 C25.6567697,47.1689097 23.2061933,46.777654 20.9427646,46.2871069 C21.6436153,44.0342205 22.506755,41.6930133 23.5148105,39.3117238 C24.2251246,40.6777445 24.9752694,42.0427809 25.7643974,43.3999417 L25.7645386,43.3999417 C26.5683559,44.7825575 27.4011282,46.1369051 28.2559345,47.4576404 Z M39.8924298,57.0346932 C38.2857837,55.3086381 36.6832338,53.3993315 35.1181134,51.3455889 C36.6374707,51.4049383 38.1864892,51.4353165 39.7607908,51.4353165 C41.3781713,51.4353165 42.9770486,51.3990316 44.5507851,51.3292749 C43.0055797,53.4200056 41.4454033,55.3322656 39.8924298,57.0346932 Z M56.0720254,39.1903529 C57.1326235,41.5973791 58.0266954,43.9263509 58.7365858,46.1408432 C56.4358689,46.6634553 53.9518177,47.0843863 51.3345739,47.3971662 C52.1583067,46.0973858 52.9714459,44.7562579 53.7704607,43.3767359 C54.5787982,41.9810409 55.3463158,40.5832359 56.0720254,39.1903529 Z M50.8341475,41.6904817 C49.5937463,43.8319825 48.3202939,45.8763021 47.0274914,47.806002 C44.6728191,47.9736427 42.2401807,48.0599948 39.7607908,48.0599948 C37.291429,48.0599948 34.8894401,47.9836279 32.576435,47.8341294 C31.2315135,45.8791152 29.9303774,43.828748 28.6978857,41.7089053 L28.6981682,41.7089053 C27.4689251,39.594829 26.3375639,37.4628914 25.3124179,35.3429084 C26.3372814,33.2180028 27.4656765,31.0836745 28.6878574,28.9733953 L28.6875749,28.9738172 C29.9130043,26.8579125 31.2026997,24.8175306 32.5351917,22.8747518 C34.8950898,22.6971255 37.3150166,22.6044448 39.7606496,22.6044448 L39.7607908,22.6044448 C42.2174405,22.6044448 44.6404745,22.6978287 46.9996661,22.8770021 C48.3118193,24.8055764 49.5927577,26.8393482 50.8229895,28.9555342 C52.0672045,31.0954882 53.2101475,33.2156117 54.2437681,35.2949508 C53.2132551,37.4100114 52.0728542,39.5515125 50.8341475,41.6904817 Z M57.826977,3.99854741 C60.484193,5.52433339 61.5175309,11.6778258 59.8480317,19.7469539 C59.7415338,20.261831 59.6216185,20.7862716 59.4913915,21.3177441 C56.1992856,20.5613908 52.6244101,19.998556 48.8815964,19.6489289 C46.7012186,16.557275 44.4417447,13.7466166 42.1737962,11.3132911 C42.783545,10.7292198 43.3924461,10.1722918 43.9988047,9.64672609 C49.8570244,4.57038314 55.3323326,2.56614533 57.826977,3.99854741 Z" id="path-1"></path>
        <filter x="-50%" y="-50%" width="200%" height="200%" filterUnits="objectBoundingBox" id="filter-2">
            <feOffset dx="0" dy="1" in="SourceAlpha" result="shadowOffsetOuter1"></feOffset>
            <feColorMatrix values="0 0 0 0 1   0 0 0 0 1   0 0 0 0 1  0 0 0 0 0" type="matrix" in="shadowOffsetOuter1"></feColorMatrix>
        </filter>
        <filter x="-50%" y="-50%" width="200%" height="200%" filterUnits="objectBoundingBox" id="filter-3">
            <feOffset dx="0" dy="1" in="SourceAlpha" result="shadowOffsetInner1"></feOffset>
            <feComposite in="shadowOffsetInner1" in2="SourceAlpha" operator="arithmetic" k2="-1" k3="1" result="shadowInnerInner1"></feComposite>
            <feColorMatrix values="0 0 0 0 0   0 0 0 0 0   0 0 0 0 0  0 0 0 1 0" type="matrix" in="shadowInnerInner1"></feColorMatrix>
        </filter>
        <path d="M39.7607908,28.2064941 C43.6740859,28.2064941 46.8465582,31.3652324 46.8465582,35.2619004 C46.8465582,39.1584277 43.6740859,42.3173073 39.7607908,42.3173073 C35.8474956,42.3173073 32.675023,39.1584277 32.675023,35.2619004 C32.675023,31.3652324 35.8474956,28.2064941 39.7607908,28.2064941" id="path-4"></path>
        <filter x="-50%" y="-50%" width="200%" height="200%" filterUnits="objectBoundingBox" id="filter-5">
            <feOffset dx="0" dy="1" in="SourceAlpha" result="shadowOffsetOuter1"></feOffset>
            <feColorMatrix values="0 0 0 0 1   0 0 0 0 1   0 0 0 0 1  0 0 0 0 0" type="matrix" in="shadowOffsetOuter1"></feColorMatrix>
        </filter>
        <filter x="-50%" y="-50%" width="200%" height="200%" filterUnits="objectBoundingBox" id="filter-6">
            <feOffset dx="0" dy="1" in="SourceAlpha" result="shadowOffsetInner1"></feOffset>
            <feComposite in="shadowOffsetInner1" in2="SourceAlpha" operator="arithmetic" k2="-1" k3="1" result="shadowInnerInner1"></feComposite>
            <feColorMatrix values="0 0 0 0 0   0 0 0 0 0   0 0 0 0 0  0 0 0 1 0" type="matrix" in="shadowInnerInner1"></feColorMatrix>
        </filter>
        <path d="M51.3595383,49.1348401 C54.0949596,48.8519142 56.1701069,46.4941963 56.0757819,43.6649349 C55.981457,40.8356735 53.6233352,38.5722641 50.7935889,38.5722641 L50.6049393,38.5722641 C47.6808681,38.6665729 45.4170713,41.1185996 45.5113962,44.0421696 C45.6057211,45.4568005 46.1716702,46.6828137 47.0205941,47.5315922 C43.8135484,53.8502759 38.9086552,58.4714029 31.5513149,62.3380602 C26.5520967,64.9787043 21.3642287,65.9217913 16.1763607,65.2616304 C11.9317414,64.6957781 8.63037083,62.8096037 6.55522364,59.6974164 C3.53682769,55.0762891 3.25385307,50.0779274 5.80062465,45.0795655 C7.59279722,41.4958343 10.4225434,38.8551903 12.214716,37.5348682 C11.8374165,36.308855 11.2714673,34.2340633 10.9884927,32.7251239 C-2.68861392,42.627539 -1.27374082,56.0193765 2.87655359,62.3380602 C5.98927439,67.053496 12.3090409,69.9770662 19.2890815,69.9770662 C21.1755789,69.9770662 23.0620764,69.7884486 24.9485739,69.3169051 C37.0221575,66.9591872 46.1716702,59.7917249 51.3595383,49.1348401 L51.3595383,49.1348401 Z M67.9607159,37.4405597 C60.7920256,29.047084 50.2276398,24.4259571 38.1540559,24.4259571 L36.644858,24.4259571 C35.7959341,22.7284002 34.0037616,21.5966956 32.0229393,21.5966956 L31.8342897,21.5966956 C28.9102185,21.6910043 26.6464216,24.1430309 26.7407464,27.066601 C26.8350713,29.8958625 29.1931931,32.1592716 32.0229393,32.1592716 L32.2115892,32.1592716 C34.2867362,32.064963 36.0789089,30.744641 36.8335079,28.9527754 L38.5313557,28.9527754 C45.7000458,28.9527754 52.4914367,31.0275672 58.6225536,35.0828418 C63.3387973,38.1950294 66.7344926,42.250304 68.62099,47.1543572 C70.2245128,51.1153233 70.1301879,54.9819806 68.4323404,58.2827855 C65.7912437,63.2811475 61.3579749,66.0161001 55.5098325,66.0161001 C51.7368378,66.0161001 48.1524926,64.8843954 46.2659952,64.0356172 C45.2284217,64.9787043 43.341924,66.4876437 42.0213759,67.430731 C46.0773453,69.3169051 50.2276398,70.3543009 54.1892845,70.3543009 C63.2444723,70.3543009 69.9415383,65.3559393 72.4883097,60.3575773 C75.223731,54.8876718 75.0350814,45.4568005 67.9607159,37.4405597 L67.9607159,37.4405597 Z M20.0436804,50.7380883 C20.1380053,53.5673497 22.4961271,55.8307591 25.3258733,55.8307591 L25.5145231,55.8307591 C28.4385941,55.7364503 30.702391,53.2844236 30.6080663,50.3608536 C30.5137414,47.5315922 28.1556195,45.2681828 25.3258733,45.2681828 L25.1372236,45.2681828 C24.9485739,45.2681828 24.6655992,45.2681828 24.4769495,45.3624916 C20.6096297,38.9494991 19.0061069,31.9706542 19.5720561,24.4259571 C19.9493556,18.7674342 21.835853,13.863381 25.1372236,9.80810632 C27.8726449,6.31868387 33.1548377,4.62112701 36.7391829,4.52681828 C46.7376196,4.33820087 50.9822388,16.7869512 51.2652133,21.785313 C52.4914367,22.0682392 54.566584,22.7284002 55.981457,23.1999438 C54.8495585,7.92193202 45.4170713,0 36.3618835,0 C27.8726449,0 20.0436804,6.13006643 16.9309596,15.183703 C12.5920155,27.2552185 15.4217617,38.8551903 20.7039546,48.0031357 C20.2323302,48.6632966 19.9493556,49.7006924 20.0436804,50.7380883 L20.0436804,50.7380883 Z" id="path-7"></path>
        <filter x="-50%" y="-50%" width="200%" height="200%" filterUnits="objectBoundingBox" id="filter-8">
            <feOffset dx="0" dy="1" in="SourceAlpha" result="shadowOffsetOuter1"></feOffset>
            <feColorMatrix values="0 0 0 0 1   0 0 0 0 1   0 0 0 0 1  0 0 0 0.13 0" type="matrix" in="shadowOffsetOuter1"></feColorMatrix>
        </filter>
        <filter x="-50%" y="-50%" width="200%" height="200%" filterUnits="objectBoundingBox" id="filter-9">
            <feOffset dx="0" dy="1" in="SourceAlpha" result="shadowOffsetInner1"></feOffset>
            <feComposite in="shadowOffsetInner1" in2="SourceAlpha" operator="arithmetic" k2="-1" k3="1" result="shadowInnerInner1"></feComposite>
            <feColorMatrix values="0 0 0 0 0   0 0 0 0 0   0 0 0 0 0  0 0 0 0.6 0" type="matrix" in="shadowInnerInner1"></feColorMatrix>
        </filter>
    </defs>
    <g id="-Page-1" stroke="none" stroke-width="1" fill="none" fill-rule="evenodd">
        <g id="cabin" transform="translate(-136.000000, -232.000000)">
            <g id="Hero">
                <g id="Hero-Content" transform="translate(135.000000, 232.000000)">
                    <g id="Group-2" transform="translate(1.000000, 0.000000)">
                        <g id="react-(1)">
                            <g id="Group">
                                <g id="Combined-Shape">
                                    <use fill="black" fill-opacity="1" filter="url(#filter-2)" xlink:href="#path-1"></use>
                                    <use fill="#53C1DE" fill-rule="evenodd" xlink:href="#path-1"></use>
                                    <use fill="black" fill-opacity="1" filter="url(#filter-3)" xlink:href="#path-1"></use>
                                </g>
                                <g id="Shape">
                                    <use fill="black" fill-opacity="1" filter="url(#filter-5)" xlink:href="#path-4"></use>
                                    <use fill="#53C1DE" fill-rule="evenodd" xlink:href="#path-4"></use>
                                    <use fill="black" fill-opacity="1" filter="url(#filter-6)" xlink:href="#path-4"></use>
                                </g>
                            </g>
                        </g>
                        <g id="redux" transform="translate(118.876812, 0.000000)">
                            <g id="Shape">
                                <use fill="black" fill-opacity="1" filter="url(#filter-8)" xlink:href="#path-7"></use>
                                <use fill="#764ABC" fill-rule="evenodd" xlink:href="#path-7"></use>
                                <use fill="black" fill-opacity="1" filter="url(#filter-9)" xlink:href="#path-7"></use>
                            </g>
                        </g>
                    </g>
                </g>
            </g>
        </g>
    </g>
</svg>