<?xml version="1.0" encoding="UTF-8" standalone="no"?>
<svg width="18px" height="16px" viewBox="0 0 18 16" version="1.1" xmlns="http://www.w3.org/2000/svg" xmlns:xlink="http://www.w3.org/1999/xlink">
    <!-- Generator: Sketch 3.8.2 (29753) - http://www.bohemiancoding.com/sketch -->
    <title>Group</title>
    <desc>Created with Sketch.</desc>
    <defs>
        <linearGradient x1="50%" y1="100%" x2="50%" y2="-0.217864924%" id="linearGradient-1">
            <stop stop-color="#D84A2E" offset="0%"></stop>
            <stop stop-color="#FF6633" offset="100%"></stop>
        </linearGradient>
    </defs>
    <g id="Page-1" stroke="none" stroke-width="1" fill="none" fill-rule="evenodd">
        <g id="Group">
            <path d="M18,14.2666667 C18,14.8666667 17.5333333,15.3333333 16.9333333,15.3333333 L1.06666667,15.3333333 C0.466666667,15.3333333 -5.92118946e-16,14.8333333 -5.92118946e-16,14.2666667 L-5.92118946e-16,1.1 C-5.92118946e-16,0.5 0.466666667,0.0333333333 1.06666667,0.0333333333 L16.9333333,0.0333333333 C17.5333333,0.0333333333 18,0.533333333 18,1.1 L18,14.2666667 L18,14.2666667 Z" id="Shape" fill="url(#linearGradient-1)"></path>
            <g transform="translate(2.000000, 2.000000)" id="Shape" fill="#F5F5F5">
                <path d="M1.23333333,11.1333333 C0.633333333,11.1333333 0.166666667,10.6333333 0.166666667,10.0666667 L0.166666667,1.4 C0.166666667,0.8 0.633333333,0.333333333 1.23333333,0.333333333 C1.83333333,0.333333333 2.3,0.833333333 2.3,1.4 L2.3,10.0666667 C2.3,10.6666667 1.83333333,11.1333333 1.23333333,11.1333333 L1.23333333,11.1333333 Z"></path>
                <path d="M10.7666667,5.6 L13.9,2 C14.3,1.56666667 14.2333333,0.866666667 13.8,0.466666667 C13.3666667,0.0666666667 12.6666667,0.133333333 12.3,0.566666667 L9.33333333,3.96666667 L6.4,0.566666667 C6,0.133333333 5.33333333,0.0666666667 4.9,0.466666667 C4.46666667,0.866666667 4.4,1.53333333 4.8,2 L7.93333333,5.6 L4.8,9.2 C4.4,9.63333333 4.46666667,10.3333333 4.9,10.7333333 C5.1,10.9 5.36666667,11 5.6,11 C5.9,11 6.2,10.8666667 6.4,10.6333333 L9.33333333,7.23333333 L12.2666667,10.6333333 C12.4666667,10.8666667 12.7666667,11 13.0666667,11 C13.3333333,11 13.5666667,10.9 13.7666667,10.7333333 C14.2,10.3333333 14.2666667,9.66666667 13.8666667,9.2 L10.7666667,5.6 L10.7666667,5.6 Z"></path>
            </g>
        </g>
    </g>
</svg>