<?xml version="1.0" encoding="UTF-8" standalone="no"?>
<svg width="152px" height="50px" viewBox="0 0 152 50" version="1.1" xmlns="http://www.w3.org/2000/svg" xmlns:xlink="http://www.w3.org/1999/xlink">
    <!-- Generator: Sketch 3.8.2 (29753) - http://www.bohemiancoding.com/sketch -->
    <title>Group</title>
    <desc>Created with Sketch.</desc>
    <defs>
        <linearGradient x1="50%" y1="100%" x2="50%" y2="-0.217864924%" id="linearGradient-1">
            <stop stop-color="#D84A2E" offset="0%"></stop>
            <stop stop-color="#FF6633" offset="100%"></stop>
        </linearGradient>
    </defs>
    <g id="Page-1" stroke="none" stroke-width="1" fill="none" fill-rule="evenodd">
        <g id="Group">
            <path d="M152,44.8 C152,46.6 150.6,48 148.8,48 L101.2,48 C99.4,48 98,46.5 98,44.8 L98,5.3 C98,3.5 99.4,2.1 101.2,2.1 L148.8,2.1 C150.6,2.1 152,3.6 152,5.3 L152,44.8 L152,44.8 Z" id="Shape" fill="url(#linearGradient-1)"></path>
            <g transform="translate(104.000000, 8.000000)" id="Shape" fill="#F5F5F5">
                <path d="M3.7,33.4 C1.9,33.4 0.5,31.9 0.5,30.2 L0.5,4.2 C0.5,2.4 1.9,1 3.7,1 C5.5,1 6.9,2.5 6.9,4.2 L6.9,30.2 C6.9,32 5.5,33.4 3.7,33.4 L3.7,33.4 Z"></path>
                <path d="M32.3,16.8 L41.7,6 C42.9,4.7 42.7,2.6 41.4,1.4 C40.1,0.2 38,0.4 36.9,1.7 L28,11.9 L19.2,1.7 C18,0.4 16,0.2 14.7,1.4 C13.4,2.6 13.2,4.6 14.4,6 L23.8,16.8 L14.4,27.6 C13.2,28.9 13.4,31 14.7,32.2 C15.3,32.7 16.1,33 16.8,33 C17.7,33 18.6,32.6 19.2,31.9 L28,21.7 L36.8,31.9 C37.4,32.6 38.3,33 39.2,33 C40,33 40.7,32.7 41.3,32.2 C42.6,31 42.8,29 41.6,27.6 L32.3,16.8 L32.3,16.8 Z"></path>
            </g>
            <g id="Shape" fill="#486071">
                <path d="M4,33 L4,17 L0,17 L0,12 L9,12 L9,33 L13,33 L13,38 L0,38 L0,33 L4,33 L4,33 Z M9,3 C9,4.7 7.7,6 6,6 C4.3,6 3,4.7 3,3 C3,1.3 4.3,0 6,0 C7.7,0 9,1.3 9,3 L9,3 Z"></path>
                <path d="M20,33 L20,17 L16,17 L16,12 L25.4,12 L25.4,15 C28.4,12.6 31.5,11.5 34.4,11.5 C37.3,11.5 39.3,12.8 40.4,15.5 C43.7,12.8 46.8,11.5 49.7,11.5 C51.4,11.5 52.7,11.9 53.8,12.6 C54.9,13.3 55.6,14.3 55.9,15.4 C56.3,16.5 56.5,18.2 56.5,20.4 L56.5,33 L61,33 L61,38 L51.5,38 L51.5,21.3 C51.5,19.8 51.4,18.7 51.3,18.1 C51.2,17.5 50.8,17 50.3,16.6 C49.8,16.2 49.1,16 48.4,16 C46.3,16 43.8,17.1 41.1,19.3 L41.1,33 L45.1,33 L45.1,38 L36.1,38 L36.1,20.8 C36.1,19.1 35.9,17.9 35.4,17.1 C34.8,16.4 34,16 32.9,16 C31,16 28,16.8 25,19 L25,33 L30,33 L30,38 L16,38 L16,33 L20,33 L20,33 Z"></path>
                <path d="M93,12 L93,17 L88.7,17 L88.6,35.7 C88.6,38.3 88.5,40.2 88.2,41.5 C87.9,42.8 87.3,44 86.3,45.4 C85.3,46.7 83.8,47.8 81.8,48.7 C79.8,49.6 77.5,50 75,50 C71.2,50 67.9,48.8 64.9,46.5 L68.2,42.8 C70.4,44.5 72.8,45.4 75.4,45.4 C76.8,45.4 78.2,45.1 79.4,44.6 C80.6,44 81.5,43.4 82.2,42.6 C82.8,41.8 83.2,41 83.4,40.3 C83.6,39.6 83.7,38.4 83.7,36.6 L83.7,34.2 C82.9,35.2 81.7,36.2 80,37.1 C78.3,38 76.5,38.5 74.5,38.5 C70.8,38.5 67.9,37.2 65.6,34.6 C63.1,32.1 62,29 62,25.2 C62,21.1 63.3,17.8 65.8,15.3 C68.3,12.8 71.3,11.5 74.6,11.5 C78,11.5 81.4,13.3 84,16 L84,12 L93,12 L93,12 Z M67.3,25.1 C67.3,27.7 68.1,29.9 69.6,31.5 C71.1,33.2 73,34 75.4,34 C77.7,34 79.6,33.2 81.3,31.5 C83,29.8 83.8,27.7 83.8,25.1 C83.8,22.4 83,20.3 81.3,18.7 C79.6,17.1 77.7,16.3 75.6,16.3 C73.4,16.3 71.5,17.1 69.9,18.7 C68.1,20.2 67.3,22.4 67.3,25.1 L67.3,25.1 Z"></path>
            </g>
        </g>
    </g>
</svg>