<?xml version="1.0" encoding="UTF-8" standalone="no"?>
<svg width="54px" height="46px" viewBox="0 0 54 46" version="1.1" xmlns="http://www.w3.org/2000/svg" xmlns:xlink="http://www.w3.org/1999/xlink">
    <!-- Generator: Sketch 3.8.2 (29753) - http://www.bohemiancoding.com/sketch -->
    <title>Group</title>
    <desc>Created with Sketch.</desc>
    <defs>
        <linearGradient x1="50%" y1="100%" x2="50%" y2="-0.217864924%" id="linearGradient-1">
            <stop stop-color="#D84A2E" offset="0%"></stop>
            <stop stop-color="#FF6633" offset="100%"></stop>
        </linearGradient>
    </defs>
    <g id="Page-1" stroke="none" stroke-width="1" fill="none" fill-rule="evenodd">
        <g id="Group">
            <path d="M54,42.8 C54,44.6 52.6,46 50.8,46 L3.2,46 C1.4,46 0,44.5 0,42.8 L0,3.3 C0,1.5 1.4,0.1 3.2,0.1 L50.8,0.1 C52.6,0.1 54,1.6 54,3.3 L54,42.8 L54,42.8 Z" id="Shape" fill="url(#linearGradient-1)"></path>
            <g transform="translate(6.000000, 6.000000)" id="Shape" fill="#F5F5F5">
                <path d="M3.7,33.4 C1.9,33.4 0.5,31.9 0.5,30.2 L0.5,4.2 C0.5,2.4 1.9,1 3.7,1 C5.5,1 6.9,2.5 6.9,4.2 L6.9,30.2 C6.9,32 5.5,33.4 3.7,33.4 L3.7,33.4 Z"></path>
                <path d="M32.3,16.8 L41.7,6 C42.9,4.7 42.7,2.6 41.4,1.4 C40.1,0.2 38,0.4 36.9,1.7 L28,11.9 L19.2,1.7 C18,0.4 16,0.2 14.7,1.4 C13.4,2.6 13.2,4.6 14.4,6 L23.8,16.8 L14.4,27.6 C13.2,28.9 13.4,31 14.7,32.2 C15.3,32.7 16.1,33 16.8,33 C17.7,33 18.6,32.6 19.2,31.9 L28,21.7 L36.8,31.9 C37.4,32.6 38.3,33 39.2,33 C40,33 40.7,32.7 41.3,32.2 C42.6,31 42.8,29 41.6,27.6 L32.3,16.8 L32.3,16.8 Z"></path>
            </g>
        </g>
    </g>
</svg>