<?xml version="1.0" encoding="UTF-8" standalone="no"?>
<svg width="86px" height="26px" viewBox="0 0 86 26" version="1.1" xmlns="http://www.w3.org/2000/svg" xmlns:xlink="http://www.w3.org/1999/xlink">
    <!-- Generator: Sketch 3.8.2 (29753) - http://www.bohemiancoding.com/sketch -->
    <title>Logo</title>
    <desc>Created with Sketch.</desc>
    <defs></defs>
    <g id="-Page-1" stroke="none" stroke-width="1" fill="none" fill-rule="evenodd">
        <g id="cabin" transform="translate(-135.000000, -50.000000)">
            <g id="Hero">
                <g id="Logo" transform="translate(135.000000, 50.000000)">
                    <path d="M16.0668704,19.864 L12.5552037,19.864 L12.4214259,20.34175 C11.8863148,21.604375 10.7492037,22.048 9.27764816,22.048 L8.34120372,22.048 C6.26764816,22.048 5.03020372,21.331375 5.03020372,18.56725 L5.03020372,14.233375 C5.03020372,11.298625 6.20075927,10.274875 8.40809261,10.274875 C10.1137593,10.274875 10.9498704,10.37725 12.1538704,10.684375 L12.5552037,13.619125 L15.8662037,13.619125 L15.8662037,7.954375 C13.5250926,7.23775 11.6522037,6.862375 9.27764816,6.862375 L7.73920372,6.862375 C3.39142594,6.862375 0.615537052,9.3535 0.615537052,14.028625 L0.615537052,18.29425 C0.615537052,23.242375 2.58875927,25.597 7.47164816,25.597 L9.3779815,25.597 C11.8863148,25.597 14.3612037,24.539125 16.0668704,23.14 L16.0668704,19.864 Z M33.6252037,13.209625 C33.6252037,9.251125 31.7523148,6.862375 27.8393148,6.862375 L26.4680926,6.862375 C24.394537,6.862375 21.1838704,7.203625 18.8427593,7.78375 L18.8427593,12.56125 L22.1203148,12.56125 L22.3878704,10.582 C23.491537,10.24075 24.9630926,10.138375 25.9998704,10.138375 C28.2406482,10.138375 29.210537,10.855 29.210537,13.414375 L29.210537,14.19925 C26.5349815,14.506375 25.1637593,14.60875 22.6554259,14.95 C19.7792037,15.325375 17.6387593,16.007875 17.6387593,19.966375 L17.6387593,20.47825 C17.6387593,24.812125 19.2440926,25.4605 22.4547593,25.4605 L23.0233148,25.4605 C25.6319815,25.4605 27.3042037,24.43675 29.210537,22.867 L29.210537,25.153375 L35.832537,25.153375 L35.832537,22.013875 C34.8960926,21.877375 34.1603148,21.809125 33.6252037,21.740875 L33.6252037,13.209625 Z M24.4279815,22.1845 C22.7557593,22.1845 22.1872037,21.604375 22.1872037,20.0005 L22.1872037,19.488625 C22.1872037,17.987125 22.8560926,17.441125 24.6286482,17.168125 C26.0667593,16.92925 28.0734259,16.7245 29.210537,16.588 L29.210537,19.93225 C27.9730926,21.194875 26.501537,22.1845 24.9296482,22.1845 L24.4279815,22.1845 Z M41.5180926,1.3 L35.0298704,1.3 L35.0298704,4.473625 C35.7322037,4.576 36.434537,4.678375 37.1034259,4.746625 L37.1034259,25.016875 C41.3508704,25.289875 43.9929815,25.4605 47.1033148,25.4605 L47.571537,25.4605 C51.0832037,25.4605 53.3239815,23.583625 53.3239815,19.010875 L53.3239815,12.595375 C53.3239815,8.671 51.2169815,6.862375 48.3073148,6.862375 L47.7387593,6.862375 C45.0632037,6.862375 43.8592037,7.4425 41.5180926,8.73925 L41.5180926,1.3 Z M48.9093148,18.191875 C48.9093148,21.126625 48.1066482,22.082125 46.1334259,22.082125 L45.6317593,22.082125 C44.260537,22.082125 43.1903148,22.048 41.5180926,21.84325 L41.5180926,11.674 C43.2906482,10.616125 44.2939815,10.37725 45.8324259,10.37725 L46.4009815,10.37725 C48.3407593,10.37725 48.9093148,11.571625 48.9093148,14.642875 L48.9093148,18.191875 Z M61.5513148,7.271875 L55.0296481,7.271875 L55.0296481,10.479625 C55.7319815,10.547875 56.4677593,10.684375 57.1366481,10.7185 L57.1366481,21.775 C56.4343148,21.809125 55.698537,21.9115 54.8958704,22.013875 L54.8958704,25.1875 L63.7920926,25.1875 L63.7920926,22.013875 C62.9894259,21.9115 62.2536481,21.809125 61.5513148,21.775 L61.5513148,7.271875 Z M83.0226481,11.708125 C83.0226481,8.295625 81.5510926,6.862375 78.6414259,6.862375 L78.273537,6.862375 C75.6648704,6.862375 73.2903148,8.46625 71.2502037,10.036 L71.2502037,7.271875 L64.728537,7.271875 L64.728537,10.479625 C65.4308704,10.547875 66.1666481,10.684375 66.835537,10.7185 L66.835537,21.775 C66.1332037,21.809125 65.3974259,21.9115 64.5947593,22.013875 L64.5947593,25.1875 L73.4909815,25.1875 L73.4909815,22.013875 C72.6883148,21.9115 71.952537,21.809125 71.2502037,21.775 L71.2502037,12.69775 C72.855537,11.5375 74.4608704,10.684375 75.9658704,10.684375 L76.3672037,10.684375 C78.3404259,10.684375 78.6079815,11.230375 78.6079815,14.096875 L78.6079815,25.1875 L85.3972037,25.1875 L85.3972037,22.013875 C84.0928704,21.877375 83.390537,21.775 83.0226481,21.740875 L83.0226481,11.708125 Z" id="cabin" fill="#FFFFFF"></path>
                    <path d="M59.310537,4.849 C60.7152037,4.849 61.8188704,3.927625 61.8188704,2.494375 C61.8188704,1.027 60.7152037,0.105625 59.310537,0.105625 C57.8724259,0.105625 56.7687593,1.027 56.7687593,2.494375 C56.7687593,3.927625 57.8724259,4.849 59.310537,4.849 L59.310537,4.849 Z" id="Path" fill="#1BFF90"></path>
                </g>
            </g>
        </g>
    </g>
</svg>