<?xml version="1.0" encoding="UTF-8" standalone="no"?>
<svg width="86px" height="24px" viewBox="0 0 86 24" version="1.1" xmlns="http://www.w3.org/2000/svg" xmlns:xlink="http://www.w3.org/1999/xlink">
    <!-- Generator: Sketch 3.8.2 (29753) - http://www.bohemiancoding.com/sketch -->
    <title>g3024</title>
    <desc>Created with Sketch.</desc>
    <defs></defs>
    <g id="-Page-1" stroke="none" stroke-width="1" fill="none" fill-rule="evenodd">
        <g id="cabin" transform="translate(-477.000000, -4251.000000)" fill="#3BB2D0">
            <g id="Group-7" transform="translate(335.000000, 1811.000000)">
                <g id="1" transform="translate(0.000000, 2440.000000)">
                    <g id="mb" transform="translate(142.000000, 0.000000)">
                        <g id="svg116693">
                            <g id="layer1" transform="translate(0.197755, 0.360466)">
                                <g id="g3024" transform="translate(0.250546, 0.185409)">
                                    <path d="M0,3.1653507e-05 L0,18 L2.61538462,18 L2.61538462,3.17649619 L7.84615385,12.176479 L13.0769231,3.17649619 L13.0769231,18 L15.6923077,18 L15.6923077,3.1653507e-05 L13.6,3.1653507e-05 C12.5538462,-0.00335657533 11.7322126,0.264737031 11.2706731,1.05885317 L7.84615385,6.94854782 L4.42163462,1.05885317 C3.96009508,0.264737031 3.13846154,-0.00335657533 2.09230769,3.1653507e-05 L0,3.1653507e-05 L0,3.1653507e-05 Z" id="path4479"></path>
                                    <path d="M46.6153846,0 L46.6153846,18.4615385 L51.7972028,18.4615385 C55.6153846,18.4615385 58.6153846,15.5183897 58.6153846,11.5050151 C58.6153846,7.49163503 55.6153846,4.54849165 51.7972028,4.54849432 C50.9337755,4.5520261 50.2299755,4.51985219 49.3426573,4.52342409 L49.3426573,1.33779245e-05 L46.6153846,1.33779245e-05 L46.6153846,0 Z M49.3426573,7.22407922 L51.7972028,7.22407922 C54.0931573,7.22407922 55.8881119,9.25451371 55.8881119,11.5050151 C55.8881119,13.7553398 54.2810119,15.7859509 51.7972028,15.7859509 L49.3426573,15.7859509 L49.3426573,7.22407922 L49.3426573,7.22407922 Z" id="path4477"></path>
                                    <path d="M24.4615385,4.61538462 C20.6923077,4.61538462 18,7.54437813 18,11.5384602 C18,15.5325423 20.692305,18.4615385 24.4615385,18.4615385 L30.9230769,18.4615385 L30.9230769,11.5384602 C30.9230769,7.54437813 28.2307719,4.61538462 24.4615385,4.61538462 L24.4615385,4.61538462 Z M24.4615385,7.278106 C26.6153846,7.278106 28.2307692,9.11345594 28.2307692,11.5384602 L28.2307692,15.7988144 L24.4615385,15.7988144 C22.3076896,15.7988144 20.6923131,13.9315065 20.6923077,11.5384602 C20.692305,9.14201096 22.3076923,7.278106 24.4615385,7.278106 L24.4615385,7.278106 Z" id="path4475"></path>
                                    <path d="M32.7692308,4.61538462 L32.7692308,23.0769231 L35.4965035,23.0769231 L35.4965035,18.5451512 C36.3838162,18.5486829 37.087619,18.524897 37.951049,18.5284288 C41.7692308,18.5284288 44.7692308,15.5852827 44.7692308,11.5719053 C44.7692308,7.558528 41.7692308,4.61538462 37.951049,4.61538462 L32.7692308,4.61538462 L32.7692308,4.61538462 Z M35.4965035,7.29096951 L37.951049,7.29096951 C40.4348308,7.29096951 42.041958,9.32158059 42.041958,11.5719053 C42.041958,13.8224067 40.2470035,15.8528412 37.951049,15.8528412 L35.4965035,15.8528412 L35.4965035,7.29096951 L35.4965035,7.29096951 Z" id="path4473"></path>
                                    <path d="M66.6923077,4.61538462 C62.9962532,4.61538462 60,7.71495739 60,11.5384602 C60,15.361963 62.9962532,18.4615385 66.6923077,18.4615385 C70.3883622,18.4615385 73.3846154,15.361963 73.3846154,11.5384602 C73.3846154,7.71495739 70.3883622,4.61538462 66.6923077,4.61538462 L66.6923077,4.61538462 Z M66.6923077,7.278106 C68.9099511,7.278106 70.7076923,9.18554113 70.7076923,11.5384602 C70.7076923,13.8913793 68.9099511,15.7988144 66.6923077,15.7988144 C64.4746643,15.7988144 62.6769231,13.8913793 62.6769231,11.5384602 C62.6769231,9.18554113 64.4746643,7.278106 66.6923077,7.278106 L66.6923077,7.278106 Z" id="path4471"></path>
                                    <polygon id="path4469" points="72.7087912 5.07692308 77.2994505 11.5684602 72.4615385 18.4615385 75.6923077 18.4615385 78.9148352 13.8605752 82.1538462 18.4615385 85.3846154 18.4615385 80.5384615 11.5684602 85.1208791 5.07692308 81.8736264 5.07692308 78.9148352 9.26797993 75.956044 5.07692843"></polygon>
                                </g>
                            </g>
                        </g>
                    </g>
                </g>
            </g>
        </g>
    </g>
</svg>