<?xml version="1.0" encoding="UTF-8" standalone="no"?>
<svg width="40px" height="36px" viewBox="0 0 40 36" version="1.1" xmlns="http://www.w3.org/2000/svg" xmlns:xlink="http://www.w3.org/1999/xlink">
    <!-- Generator: Sketch 3.8.2 (29753) - http://www.bohemiancoding.com/sketch -->
    <title>Group 2</title>
    <desc>Created with Sketch.</desc>
    <defs></defs>
    <g id="-Page-1" stroke="none" stroke-width="1" fill="none" fill-rule="evenodd">
        <g id="cabin" transform="translate(-499.000000, -2444.000000)" fill="#53C1DE">
            <g id="Group-7" transform="translate(335.000000, 1811.000000)">
                <g id="1" transform="translate(0.000000, 633.000000)">
                    <g id="Group-2" transform="translate(164.000000, 0.000000)">
                        <g id="react-(1)">
                            <g id="Group">
                                <path d="M32.6638592,11.6439612 C32.2522753,11.5009142 31.8257903,11.3655685 31.3866639,11.2375678 C31.4588395,10.9401354 31.5250826,10.6465537 31.5839813,10.3579637 C32.5507938,5.61922622 31.9186581,1.80166627 29.7601027,0.544763081 C27.6903189,-0.66044063 24.3053455,0.596177316 20.8866854,3.60030855 C20.5579409,3.88918379 20.2282782,4.19503071 19.8987571,4.51556739 C19.6791938,4.30349261 19.4599838,4.0985488 19.2413388,3.90251868 C15.658483,0.690305988 12.0672231,-0.663364327 9.91078645,0.597175652 C7.84298013,1.80587354 7.23061852,5.39474357 8.10089096,9.8856802 C8.1849309,10.3194565 8.28316581,10.7624318 8.39425391,11.2128233 C7.88598882,11.3585089 7.39530856,11.5138212 6.92581482,11.6790456 C2.72530077,13.1577929 0.042661078,15.4753552 0.042661078,17.8792734 C0.042661078,20.3620603 2.92247684,22.8523345 7.2976386,24.3623153 C7.64290858,24.4814738 8.00117297,24.5941429 8.37038375,24.7011073 C8.25053856,25.1882234 8.14630078,25.6655698 8.05880035,26.1311503 C7.22899422,30.5441455 7.87701984,34.0482283 9.93931765,35.2492962 C12.069483,36.4896556 15.6444998,35.214711 19.1256601,32.1421225 C19.4008027,31.8992419 19.6769339,31.6416717 19.9535594,31.3716936 C20.3121065,31.7203262 20.6700881,32.0502758 21.0261634,32.3597595 C24.398072,35.2896574 27.7283841,36.4727553 29.7887751,35.268336 C31.9168217,34.0244109 32.6084212,30.2601906 31.7105354,25.6804023 C31.6419616,25.3306286 31.5621591,24.9732961 31.47254,24.6096172 C31.7236005,24.5346706 31.9700707,24.4572997 32.2103967,24.3768625 C36.7587938,22.8551869 39.7181295,20.3952191 39.7181295,17.8792734 C39.7181295,15.4666555 36.948978,13.1334764 32.6638592,11.6439612 Z M31.6773433,22.7523584 C31.4603932,22.8248801 31.2377932,22.8949776 31.010956,22.9629356 C30.5088351,21.3578276 29.8311482,19.6510321 29.0018365,17.8876168 C29.7932244,16.1662027 30.4447104,14.481228 30.9327776,12.8865312 C31.3386412,13.0051191 31.7325696,13.1301961 32.1121618,13.2621902 C35.7836478,14.5384183 38.0232064,16.4253418 38.0232064,17.8792734 C38.0232064,19.4279756 35.6045511,21.4384074 31.6773433,22.7523584 Z M30.0478159,26.0127762 C30.4448515,28.0378979 30.5015608,29.8688434 30.2385652,31.3001699 C30.0022648,32.5863101 29.5270506,33.4438081 28.9394773,33.7872352 C27.6891182,34.5180161 25.0152359,33.5681008 22.1315358,31.0624237 C21.8009552,30.7751886 21.4679734,30.468486 21.1339322,30.1438845 C22.2518754,28.9093013 23.3691829,27.474053 24.4596542,25.8800691 C26.3776715,25.7082131 28.1897564,25.4272531 29.833055,25.0436787 C29.9139876,25.373343 29.9858806,25.6966608 30.0478159,26.0127762 Z M13.5689251,33.660946 C12.3473092,34.0965764 11.3743526,34.1090556 10.7862143,33.7666267 C9.53472536,33.0377712 9.01445457,30.2243219 9.72413302,26.4503321 C9.80541872,26.0181244 9.9021706,25.574151 10.0136824,25.1203366 C11.6389725,25.4832312 13.4377804,25.7443668 15.3603882,25.9017473 C16.4582042,27.4615025 17.6077858,28.8951821 18.7662658,30.1505164 C18.5131573,30.3972476 18.2610374,30.6321416 18.01033,30.8534865 C16.4709867,32.2121486 14.9283948,33.1761119 13.5689251,33.660946 Z M7.84580502,22.7428741 C5.91119143,22.0752023 4.31351445,21.2074356 3.21838218,20.2605154 C2.23433804,19.4095778 1.73751366,18.5647729 1.73751366,17.8792734 C1.73751366,16.4204929 3.89140795,14.5598112 7.48372705,13.2951353 C7.9196048,13.141677 8.37589224,12.9970611 8.84941142,12.8612163 C9.34588266,14.4919244 9.99715691,16.1968659 10.7831069,17.9209183 C9.98698737,19.6705708 9.32646168,21.4026815 8.82511751,23.0525004 C8.48754531,22.954521 8.16049576,22.8514074 7.84580502,22.7428741 Z M9.76424622,9.55701419 C9.01862124,5.70929027 9.51382132,2.80670392 10.759943,2.07834756 C12.0872797,1.30242769 15.0223923,2.40872496 18.1159097,5.18231224 C18.3136507,5.35958794 18.5121686,5.54513554 18.7112515,5.73710102 C17.5584919,6.98694454 16.4194329,8.4098565 15.3313628,9.96041265 C13.4653935,10.1350499 11.6792269,10.4155819 10.0369876,10.7912409 C9.93373853,10.3718691 9.84228329,9.95984219 9.76424622,9.55701419 Z M26.8784507,13.8241099 C26.4858643,13.1393951 26.0828254,12.4708675 25.671948,11.8205951 C26.9378438,11.9821827 28.1507023,12.196682 29.2896909,12.4591727 C28.94774,13.5657552 28.5215376,14.7227536 28.0198402,15.9088463 C27.6599517,15.2189259 27.2793001,14.5233007 26.8784507,13.8241099 Z M19.8993219,6.96020344 C20.6811053,7.81541961 21.4640186,8.77025527 22.2340787,9.80624127 C21.4580863,9.76923159 20.6724893,9.74997799 19.8803954,9.74997799 C19.0957871,9.74997799 18.3159813,9.76880373 17.5447912,9.80517162 C18.3156281,8.77881241 19.1053211,7.82526031 19.8993219,6.96020344 Z M12.8754896,13.8359473 C12.4833268,14.5225876 12.1097374,15.2144334 11.7554985,15.9075629 C11.2619227,14.725606 10.839675,13.5633307 10.4947581,12.44106 C11.6267549,12.1852725 12.8338934,11.9761214 14.0917383,11.8176001 C13.6750696,12.4738625 13.2687118,13.1473104 12.8754896,13.8358047 L12.8754896,13.8359473 Z M14.1279672,24.0630289 C12.8283849,23.9166302 11.6030966,23.7182471 10.4713823,23.469519 C10.8218077,22.3272104 11.2533775,21.1401194 11.7574053,19.932705 C12.1125623,20.6253352 12.4876347,21.3174664 12.8821987,22.0056042 L12.8822693,22.0056042 C13.284178,22.7066489 13.7005641,23.3933604 14.1279672,24.0630289 Z M19.9462149,28.9189994 C19.1428919,28.0438165 18.3416169,27.0757174 17.5590567,26.0343831 C18.3187354,26.0644757 19.0932446,26.0798788 19.8803954,26.0798788 C20.6890856,26.0798788 21.4885243,26.0614808 22.2753925,26.0261112 C21.5027899,27.0862 20.7227016,28.0557966 19.9462149,28.9189994 Z M28.0360127,19.8711649 C28.5663117,21.0916288 29.0133477,22.2725159 29.3682929,23.3953571 C28.2179344,23.6603435 26.9759089,23.8737733 25.667287,24.032366 C26.0791534,23.3733224 26.4857229,22.6933139 26.8852303,21.9938379 C27.2893991,21.2861616 27.6731579,20.5774154 28.0360127,19.8711649 Z M25.4170737,21.1388358 C24.7968731,22.2246672 24.160147,23.2612236 23.5137457,24.239663 C22.3364095,24.3246639 21.1200904,24.3684481 19.8803954,24.3684481 C18.6457145,24.3684481 17.44472,24.3297268 16.2882175,24.2539247 C15.6157567,23.26265 14.9651887,22.2230272 14.3489429,21.1481773 L14.3490841,21.1481773 C13.7344626,20.0762513 13.168782,18.9952689 12.6562089,17.9203479 C13.1686407,16.842931 13.7328383,15.7607364 14.3439287,14.6907356 L14.3437875,14.6909496 C14.9565022,13.6180965 15.6013498,12.5835367 16.2675958,11.5984657 C17.4475449,11.5084017 18.6575083,11.4614086 19.8803248,11.4614086 L19.8803954,11.4614086 C21.1087203,11.4614086 22.3202373,11.5087582 23.4998331,11.5996067 C24.1559097,12.5774753 24.7963788,13.6086836 25.4114947,14.6816793 C26.0336022,15.7667264 26.6050737,16.8417186 27.121884,17.8960314 C26.6066275,18.9684565 26.0364271,20.054288 25.4170737,21.1388358 Z M28.9134885,2.02743249 C30.2420965,2.80107045 30.7587654,5.92115112 29.9240158,10.01254 C29.8707669,10.2736045 29.8108092,10.539518 29.7456958,10.808997 C28.0996428,10.4254939 26.312205,10.1401129 24.4407982,9.96283718 C23.3506093,8.39523803 22.2208724,6.97011547 21.0868981,5.73631659 C21.3917725,5.44016781 21.6962231,5.15778174 21.9994023,4.89129774 C24.9285122,2.31737737 27.6661663,1.30114411 28.9134885,2.02743249 Z" id="Combined-Shape"></path>
                                <path d="M19.8803954,14.3018843 C21.8370429,14.3018843 23.4232791,15.9034981 23.4232791,17.8792734 C23.4232791,19.8549774 21.8370429,21.4566628 19.8803954,21.4566628 C17.9237478,21.4566628 16.3375115,19.8549774 16.3375115,17.8792734 C16.3375115,15.9034981 17.9237478,14.3018843 19.8803954,14.3018843" id="Shape"></path>
                            </g>
                        </g>
                    </g>
                </g>
            </g>
        </g>
    </g>
</svg>