<?xml version="1.0" encoding="UTF-8" standalone="no"?>
<svg width="37px" height="35px" viewBox="0 0 37 35" version="1.1" xmlns="http://www.w3.org/2000/svg" xmlns:xlink="http://www.w3.org/1999/xlink">
    <!-- Generator: Sketch 3.8.2 (29753) - http://www.bohemiancoding.com/sketch -->
    <title>redux</title>
    <desc>Created with Sketch.</desc>
    <defs></defs>
    <g id="-Page-1" stroke="none" stroke-width="1" fill="none" fill-rule="evenodd">
        <g id="cabin" transform="translate(-900.000000, -2451.000000)" fill="#764ABC">
            <g id="Group-7" transform="translate(335.000000, 1811.000000)">
                <g id="1" transform="translate(400.000000, 640.000000)">
                    <g id="redux" transform="translate(165.000000, 0.000000)">
                        <path d="M25.6370909,24.4436997 C27.0025285,24.3029491 28.0383777,23.1300269 27.9912936,21.7225202 C27.9442096,20.3150135 26.7671082,19.189008 25.3545865,19.189008 L25.2604185,19.189008 C23.8008127,19.2359249 22.6707954,20.4557642 22.7178795,21.9101877 C22.7649636,22.6139411 23.0474678,23.2238606 23.4712243,23.6461127 C21.8703664,26.7895442 19.4219956,29.0884718 15.7494392,31.0120643 C13.2539843,32.3257373 10.6643613,32.7949061 8.07473825,32.466488 C5.95595577,32.1849866 4.30801383,31.2466488 3.27216462,29.6983915 C1.76547485,27.3994638 1.62422268,24.9128687 2.89549218,22.4262734 C3.79008922,20.6434316 5.20261088,19.3297587 6.09720794,18.6729222 C5.90887172,18.0630027 5.62636738,17.0308311 5.48511521,16.2801609 C-1.3420728,21.2064344 -0.635811971,27.8686328 1.43588646,31.0120643 C2.98966029,33.3579089 6.144292,34.8123325 9.62851207,34.8123325 C10.5701932,34.8123325 11.5118743,34.7184986 12.4535554,34.4839142 C18.4803144,33.3109919 23.0474678,29.7453083 25.6370909,24.4436997 L25.6370909,24.4436997 Z M33.9238846,18.6260054 C30.3454964,14.4504021 25.0720822,12.1514745 19.0453231,12.1514745 L18.2919782,12.1514745 C17.8682217,11.3069705 16.9736247,10.7439678 15.9848595,10.7439678 L15.8906915,10.7439678 C14.4310857,10.7908847 13.3010684,12.0107239 13.3481524,13.4651475 C13.3952365,14.8726542 14.5723379,15.9986595 15.9848595,15.9986595 L16.0790277,15.9986595 C17.1148768,15.9517427 18.009474,15.2949062 18.3861464,14.4034853 L19.2336594,14.4034853 C22.8120475,14.4034853 26.2020995,15.4356569 29.2625632,17.4530831 C31.616766,19.0013405 33.3117919,21.0187667 34.253473,23.458445 C35.0539019,25.4289545 35.0068178,27.352547 34.1593049,28.9946381 C32.8409513,31.4812333 30.6280008,32.8418231 27.7087892,32.8418231 C25.8254271,32.8418231 24.036233,32.2788203 23.0945519,31.8565684 C22.5766274,32.3257373 21.6349461,33.0764075 20.9757695,33.5455765 C23.0003837,34.4839142 25.0720822,35 27.0496126,35 C31.5696819,35 34.9126498,32.5134049 36.1839192,30.0268097 C37.5493568,27.30563 37.4551888,22.6139411 33.9238846,18.6260054 L33.9238846,18.6260054 Z M10.0051845,25.2412868 C10.0522686,26.6487935 11.22937,27.774799 12.6418916,27.774799 L12.7360597,27.774799 C14.1956654,27.7278821 15.3256827,26.5080429 15.2785988,25.0536194 C15.2315147,23.6461127 14.0544133,22.5201072 12.6418916,22.5201072 L12.5477235,22.5201072 C12.4535554,22.5201072 12.3123032,22.5201072 12.2181351,22.5670241 C10.2876889,19.3766756 9.48725992,15.9048257 9.76976424,12.1514745 C9.95810047,9.33646113 10.8997816,6.89678284 12.5477235,4.87935658 C13.9131611,3.14343164 16.5498682,2.29892762 18.3390623,2.25201072 C23.3299722,2.15817695 25.4487547,8.35120644 25.5900068,10.8378016 C26.2020995,10.9785523 27.2379488,11.3069705 27.9442096,11.541555 C27.3792009,3.94101877 22.6707954,0 18.1507261,0 C13.9131611,0 10.0051845,3.04959785 8.45141069,7.55361931 C6.28554415,13.5589812 7.69806582,19.3297587 10.3347729,23.8806971 C10.0993526,24.2091153 9.95810047,24.7252011 10.0051845,25.2412868 L10.0051845,25.2412868 Z" id="Shape"></path>
                    </g>
                </g>
            </g>
        </g>
    </g>
</svg>