<?xml version="1.0" encoding="UTF-8" standalone="no"?>
<svg width="16px" height="13px" viewBox="0 0 16 13" version="1.1" xmlns="http://www.w3.org/2000/svg" xmlns:xlink="http://www.w3.org/1999/xlink">
    <!-- Generator: Sketch 3.8.2 (29753) - http://www.bohemiancoding.com/sketch -->
    <title>twitter</title>
    <desc>Created with Sketch.</desc>
    <defs></defs>
    <g id="-Page-1" stroke="none" stroke-width="1" fill="none" fill-rule="evenodd">
        <g id="cabin" transform="translate(-1212.000000, -7174.000000)" fill="#FFFFFF">
            <g id="Group-15" transform="translate(134.000000, 6521.000000)">
                <g id="Group-5" transform="translate(1078.000000, 652.000000)">
                    <path d="M14.111,3.05 C14.789,2.65 15.309,2.01 15.554,1.24 C14.92,1.62 14.217,1.89 13.469,2.04 C12.87,1.4 12.017,1 11.073,1 C9.26,1 7.79,2.47 7.79,4.28 C7.79,4.54 7.819,4.79 7.875,5.03 C5.147,4.89 2.728,3.59 1.109,1.6 C0.826,2.08 0.665,2.65 0.665,3.25 C0.665,4.39 1.423,5.39 2.304,5.98 C1.766,5.96 0.996,5.82 0.996,5.57 L0.996,5.61 C0.996,7.2 1.95,8.53 3.451,8.83 C3.175,8.91 2.796,8.95 2.496,8.95 C2.284,8.95 2.034,8.92 1.833,8.89 C2.251,10.19 3.44,11.14 4.877,11.17 C3.754,12.05 2.327,12.57 0.788,12.57 C0.523,12.57 0.256,12.55 0,12.53 C1.453,13.46 3.175,14 5.029,14 C11.067,14 14.367,9 14.367,4.66 C14.367,4.52 14.364,4.38 14.357,4.24 C14.999,3.77 15.554,3.19 15.994,2.54 C15.407,2.8 14.775,2.97 14.111,3.05 Z" id="twitter"></path>
                </g>
            </g>
        </g>
    </g>
</svg>