<?xml version="1.0" encoding="UTF-8" standalone="no"?>
<svg width="170px" height="170px" viewBox="0 0 170 170" version="1.1" xmlns="http://www.w3.org/2000/svg" xmlns:xlink="http://www.w3.org/1999/xlink">
    <!-- Generator: Sketch 3.8.2 (29753) - http://www.bohemiancoding.com/sketch -->
    <title>twittercta</title>
    <desc>Created with Sketch.</desc>
    <defs></defs>
    <g id="-Page-1" stroke="none" stroke-width="1" fill="none" fill-rule="evenodd">
        <g id="cabin" transform="translate(-635.000000, -3067.000000)" fill="#2F7DEB">
            <g id="click-to-tweet" transform="translate(233.000000, 2948.000000)">
                <g id="twittercta" transform="translate(402.000000, 119.000000)">
                    <path d="M85,168 L85,168 C130.839634,168 168,130.839634 168,85 C168,39.1603658 130.839634,2 85,2 C39.1603658,2 2,39.1603658 2,85 C2,130.839634 39.1603658,168 85,168 L85,168 Z M85,170 L85,170 C38.0557963,170 0,131.944204 0,85 C0,38.0557963 38.0557963,0 85,0 C131.944204,0 170,38.0557963 170,85 C170,131.944204 131.944204,170 85,170 L85,170 Z" id="Oval-14"></path>
                    <path d="M109,60.6132903 C107.232558,61.3991694 105.336084,61.9270881 103.343586,62.1670512 C105.378095,60.9492386 106.935484,59.0205353 107.673668,56.7198892 C105.768192,57.8507153 103.658665,58.6695893 101.417104,59.1105215 C99.6196549,57.1938163 97.060015,56 94.2273068,56 C88.7869467,56 84.375844,60.4123212 84.375844,65.847485 C84.375844,66.6213659 84.4628657,67.3712506 84.6309077,68.0911398 C76.4448612,67.680203 69.1860465,63.7628057 64.3248312,57.8027227 C63.4816204,59.2544993 62.9954989,60.9492386 62.9954989,62.7519612 C62.9954989,66.1684356 65.2700675,69.1799723 67.9137284,70.9467005 C66.2993248,70.8927088 63.9857464,70.4487771 63.9857464,69.7108906 L63.9857464,69.8398708 C63.9857464,74.6091371 66.8454614,78.5865251 71.3495874,79.4953853 C70.5243811,79.7173512 69.3870968,79.8403323 68.4868717,79.8403323 C67.8507127,79.8403323 67.1035259,79.7773419 66.4973743,79.6573604 C67.7516879,83.5717582 71.3225806,86.4183203 75.6316579,86.4993078 C72.2618155,89.1359022 67.9797449,90.7106599 63.3675919,90.7106599 C62.5693923,90.7106599 61.7711928,90.6626673 61,90.5756807 C65.36009,93.3652515 70.5273818,95 76.0907727,95 C94.2123031,95 104.111778,79.9963083 104.111778,66.9843101 C104.111778,66.5553761 104.099775,66.1294416 104.07877,65.7065067 C106.011253,64.3207199 107.682671,62.5869866 109,60.6132903 L109,60.6132903 Z" id="Shape"></path>
                    <path d="M63.5009766,119.333008 L62.2363281,119.333008 L62.2363281,117.357422 L61.0332031,117.357422 L61.0332031,123.728516 L62.4482422,123.728516 L62.4482422,125 L58.2099609,125 L58.2099609,123.728516 L59.6181641,123.728516 L59.6181641,117.357422 L58.4013672,117.357422 L58.4013672,119.333008 L57.1435547,119.333008 L57.1435547,116.079102 L63.5009766,116.079102 L63.5009766,119.333008 Z M75.0878906,116.079102 L73.7070312,125 L72.2509766,125 L71.4648438,121.151367 L70.6923828,125 L69.2363281,125 L67.8554688,116.079102 L69.3251953,116.079102 L70.1455078,122.087891 L70.7949219,118.628906 L72.1484375,118.628906 L72.7773438,122.087891 L73.6181641,116.079102 L75.0878906,116.079102 Z M85.4648438,125 L79.7636719,125 L79.7636719,116.079102 L85.4648438,116.079102 L85.4648438,117.357422 L81.1787109,117.357422 L81.1787109,119.818359 L84.5214844,119.818359 L84.5214844,121.09668 L81.1787109,121.09668 L81.1787109,123.728516 L85.4648438,123.728516 L85.4648438,125 Z M96.6074219,125 L90.90625,125 L90.90625,116.079102 L96.6074219,116.079102 L96.6074219,117.357422 L92.3212891,117.357422 L92.3212891,119.818359 L95.6640625,119.818359 L95.6640625,121.09668 L92.3212891,121.09668 L92.3212891,123.728516 L96.6074219,123.728516 L96.6074219,125 Z M108.071289,119.333008 L106.806641,119.333008 L106.806641,117.357422 L105.603516,117.357422 L105.603516,123.728516 L107.018555,123.728516 L107.018555,125 L102.780273,125 L102.780273,123.728516 L104.188477,123.728516 L104.188477,117.357422 L102.97168,117.357422 L102.97168,119.333008 L101.713867,119.333008 L101.713867,116.079102 L108.071289,116.079102 L108.071289,119.333008 Z" id="TWEET"></path>
                </g>
            </g>
        </g>
    </g>
</svg>