<?xml version="1.0" encoding="UTF-8" standalone="no"?>
<svg width="16px" height="16px" viewBox="0 0 16 16" version="1.1" xmlns="http://www.w3.org/2000/svg" xmlns:xlink="http://www.w3.org/1999/xlink">
    <!-- Generator: Sketch 3.8.2 (29753) - http://www.bohemiancoding.com/sketch -->
    <title>Bell_1_x2C__Notification_1</title>
    <desc>Created with Sketch.</desc>
    <defs></defs>
    <g id="Page-1" stroke="none" stroke-width="1" fill="none" fill-rule="evenodd">
        <g id="A03_Cabin" transform="translate(-455.000000, -76.000000)" fill="#FFFFFF">
            <g id="Nav" transform="translate(243.000000, 41.000000)">
                <path d="M227,44.305 C227,40.983 224.875,38.187 221.97,37.299 C221.985,37.2 222,37.102 222,37 C222,35.895 221.104,35 220,35 C218.896,35 218,35.895 218,37 C218,37.102 218.016,37.2 218.03,37.299 C215.125,38.187 213,40.983 213,44.305 L213,47 L212.5,47 C212.224,47 212,47.224 212,47.5 L212,48.5 C212,48.776 212.224,49 212.5,49 L218,49 C218,50.105 218.896,51 220,51 C221.104,51 222,50.105 222,49 L227.5,49 C227.776,49 228,48.776 228,48.5 L228,47.5 C228,47.224 227.776,47 227.5,47 L227,47 L227,44.305 L227,44.305 Z M215,47 L215,44.305 C215,41.379 217.243,39 220,39 C222.757,39 225,41.379 225,44.305 L225,47 L215,47 L215,47 Z" id="Bell_1_x2C__Notification_1"></path>
            </g>
        </g>
    </g>
</svg>