<?xml version="1.0" encoding="UTF-8" standalone="no"?>
<svg width="108px" height="31px" viewBox="0 0 108 31" version="1.1" xmlns="http://www.w3.org/2000/svg" xmlns:xlink="http://www.w3.org/1999/xlink">
    <!-- Generator: Sketch 3.8.2 (29753) - http://www.bohemiancoding.com/sketch -->
    <title>logo</title>
    <desc>Created with Sketch.</desc>
    <defs></defs>
    <g id="Page-1" stroke="none" stroke-width="1" fill="none" fill-rule="evenodd">
        <g id="A03_Cabin" transform="translate(-2.000000, -56.000000)">
            <g id="Address-Bar" transform="translate(0.000000, -1.000000)">
                <g id="logo" transform="translate(2.000000, 57.000000)">
                    <path d="M19.6828402,22.9213483 L15.2094675,22.9213483 L15.0390533,23.511236 C14.3573965,25.0702247 12.9088757,25.6179775 11.0343195,25.6179775 L9.84142012,25.6179775 C7.2,25.6179775 5.62366864,24.7331461 5.62366864,21.3202247 L5.62366864,15.9691011 C5.62366864,12.3455056 7.1147929,11.0814607 9.92662722,11.0814607 C12.0994083,11.0814607 13.164497,11.2078652 14.6982249,11.5870787 L15.2094675,15.2106742 L19.4272189,15.2106742 L19.4272189,8.21629213 C16.4449704,7.33146067 14.0591716,6.86797753 11.0343195,6.86797753 L9.07455622,6.86797753 C3.53609468,6.86797753 0,9.94382022 0,15.7162921 L0,20.9831461 C0,27.0926966 2.51360947,30 8.73372781,30 L11.1621302,30 C14.3573965,30 17.5100592,28.6938202 19.6828402,26.9662921 L19.6828402,22.9213483 Z M42.0497041,14.7050562 C42.0497041,9.81741573 39.6639053,6.86797753 34.6792899,6.86797753 L32.9325444,6.86797753 C30.2911243,6.86797753 26.2011834,7.28932584 23.2189349,8.00561798 L23.2189349,13.9044944 L27.3940828,13.9044944 L27.7349112,11.4606742 C29.1408284,11.0393258 31.0153846,10.9129213 32.3360947,10.9129213 C35.1905325,10.9129213 36.4260355,11.7977528 36.4260355,14.9578652 L36.4260355,15.9269663 C33.0177515,16.3061798 31.2710059,16.4325843 28.0757396,16.8539326 C24.4118343,17.3174157 21.6852071,18.1601124 21.6852071,23.0477528 L21.6852071,23.6797753 C21.6852071,29.0308989 23.7301775,29.8314607 27.8201183,29.8314607 L28.5443787,29.8314607 C31.8674556,29.8314607 33.9976331,28.5674157 36.4260355,26.6292135 L36.5644968,29.8314613 L44.9999997,29.8314613 L44.9999997,25.9550568 C43.8071003,25.7865175 42.8698222,25.7022479 42.1881654,25.6179782 L42.0497041,14.7050562 Z M30.3337278,25.7865169 C28.2035503,25.7865169 27.4792899,25.0702247 27.4792899,23.0898876 L27.4792899,22.4578652 C27.4792899,20.6039326 28.3313609,19.9297753 30.5893491,19.5926966 C32.4213018,19.2977528 34.9775148,19.0449438 36.4260355,18.8764045 L36.4260355,23.005618 C34.8497041,24.5646067 32.9751479,25.7865169 30.9727811,25.7865169 L30.3337278,25.7865169 Z M52.104142,0 L43.8390533,0 L43.8390533,3.91853933 C44.7337278,4.04494382 45.6284024,4.17134831 46.4804734,4.25561798 L46.4804734,29.2837079 C51.8911243,29.6207865 55.2568047,29.8314607 59.2189349,29.8314607 L59.8153846,29.8314607 C64.2887574,29.8314607 67.1431953,27.5140449 67.1431953,21.8679775 L67.1431953,13.9466292 C67.1431953,9.1011236 64.4591716,6.86797753 60.7526627,6.86797753 L60.0284024,6.86797753 C56.6201183,6.86797753 55.0863905,7.58426966 52.104142,9.18539326 L52.104142,0 Z M61.5195266,20.8567416 C61.5195266,24.4803371 60.4970414,25.6601124 57.983432,25.6601124 L57.3443787,25.6601124 C55.5976331,25.6601124 54.2343195,25.6179775 52.104142,25.3651685 L52.104142,12.8089888 C54.3621302,11.502809 55.6402367,11.2078652 57.6,11.2078652 L58.3242604,11.2078652 C60.7952663,11.2078652 61.5195266,12.6825843 61.5195266,16.4747191 L61.5195266,20.8567416 Z M78,7.67652952 L69.3159763,7.37359551 L69.3159763,11.4415573 C70.2106509,11.5281097 71.147929,11.7012144 72,11.7444906 L72,25.7659759 C71.1053254,25.8092521 70.1680473,25.9390807 69.1455621,26.0689092 L69.1455621,30.0935948 L80.4781065,30.0935948 L80.4781065,26.0689092 C79.4556213,25.9390807 78.8946745,26.1121861 78,26.0689099 L78,7.67652952 Z M104.975148,13.0028008 C104.975148,8.68250273 103.100592,6.86797753 99.3940828,6.86797753 L98.9254438,6.86797753 C95.6023669,6.86797753 92.5775148,8.89851763 89.9786982,10.8858548 L89.9786982,7.3864133 L81.6710059,7.3864133 L81.6710059,11.4474935 C82.5656805,11.5338995 83.5029586,11.7067114 84.3550296,11.7499144 L84.3550296,25.7476802 C83.460355,25.7908832 82.5230769,25.9204921 81.5005917,26.0501011 L81.5005917,30.0679783 L92.8331361,30.0679783 L92.8331361,26.0501011 C91.8106509,25.9204921 90.8733728,25.7908832 89.9786982,25.7476802 L89.9786982,14.2556873 C92.0236686,12.7867859 94.068639,11.7067114 95.9857988,11.7067114 L96.4970414,11.7067114 C99.0106509,11.7067114 99.3514793,12.3979591 99.3514793,16.0270095 L99.3514793,30.0679783 L108,30.0679783 L108,26.0501011 C106.338462,25.8772891 105.443787,25.7476802 104.975148,25.7044772 L104.975148,13.0028008 Z" id="cabin" fill="#FFFFFF"></path>
                    <path d="M75.0198675,6 C76.6887417,6 78,4.83453237 78,3.02158273 C78,1.16546763 76.6887417,0 75.0198675,0 C73.3112583,0 72,1.16546763 72,3.02158273 C72,4.83453237 73.3112583,6 75.0198675,6 L75.0198675,6 Z" id="Path" fill="#1BFF90"></path>
                </g>
            </g>
        </g>
    </g>
</svg>